<?xml version="1.0" standalone="no"?>
<!DOCTYPE svg PUBLIC "-//W3C//DTD SVG 1.1//EN" "http://www.w3.org/Graphics/SVG/1.1/DTD/svg11.dtd" >
<svg>
<metadata>
Created by FontForge 20110222 at Tue Feb 18 13:11:54 2014
 By Orthosie Webhosting
Copyright (c) 1990, 1992 Adobe Systems Incorporated.  All Rights Reserved. (c) 1981, 2002 Heidelberger Druckmaschinen AG. All rights reserved.
</metadata>
<defs>
<font id="DIN1451StdEngschrift" horiz-adv-x="757" >
  <font-face 
    font-family="DIN1451StdEngschrift"
    font-weight="400"
    font-stretch="normal"
    units-per-em="2048"
    panose-1="0 0 5 0 0 0 0 0 0 0"
    ascent="1458"
    descent="-590"
    x-height="1038"
    cap-height="1458"
    bbox="-338 -512 2048 1919"
    underline-thickness="102"
    underline-position="-102"
    unicode-range="U+0020-FB02"
  />
<missing-glyph horiz-adv-x="1024" 
d="M0 0v1434h1024v-1434h-1024zM512 809l348 522h-696zM573 717l349 -522v1044zM164 102h696l-348 523zM102 1239v-1044l349 522z" />
    <glyph glyph-name="f_i" unicode="fi" horiz-adv-x="833" 
d="M113 0v874h-103v164h103v142q0 73 22.5 128t61 87t85 47.5t99.5 15.5h96v-196h-94q-29 0 -45 -19t-16 -53v-152h155v-164h-155v-874h-209zM539 0v1038h209v-1038h-209zM539 1249v209h209v-209h-209z" />
    <glyph glyph-name="f_l" unicode="fl" horiz-adv-x="833" 
d="M113 0v874h-103v164h103v142q0 73 22.5 128t61 87t85 47.5t99.5 15.5h96v-196h-94q-29 0 -45 -19t-16 -53v-152h155v-164h-155v-874h-209zM539 279v1179h209v-1165q0 -58 21 -80.5t81 -28.5v-196q-78 0 -131 12t-96 42.5t-63.5 89t-20.5 147.5z" />
    <glyph glyph-name=".notdef" horiz-adv-x="1024" 
d="M0 0v1434h1024v-1434h-1024zM512 809l348 522h-696zM573 717l349 -522v1044zM164 102h696l-348 523zM102 1239v-1044l349 522z" />
    <glyph glyph-name=".null" horiz-adv-x="0" 
 />
    <glyph glyph-name="nonmarkingreturn" horiz-adv-x="682" 
 />
    <glyph glyph-name="space" unicode=" " horiz-adv-x="380" 
 />
    <glyph glyph-name="exclam" unicode="!" horiz-adv-x="491" 
d="M195 360l-80 1098h262l-80 -1098h-102zM141 0v209h209v-209h-209z" />
    <glyph glyph-name="quotedbl" unicode="&#x22;" horiz-adv-x="569" 
d="M68 1098v360h163v-360h-163zM338 1098v360h164v-360h-164z" />
    <glyph glyph-name="numbersign" unicode="#" horiz-adv-x="761" 
d="M369 0l59 440h-172l-59 -440h-140l60 440h-105v123h121l45 332h-102v123h119l59 440h139l-59 -440h172l59 440h140l-60 -440h105v-123h-121l-45 -332h102v-123h-119l-59 -440h-139zM444 563l45 332h-172l-45 -332h172z" />
    <glyph glyph-name="dollar" unicode="$" horiz-adv-x="761" 
d="M330 895v367q-88 -34 -88 -189q0 -80 15.5 -116t72.5 -62zM434 623v-426q32 7 52 24.5t29 48t12 62t3 82.5q0 105 -17.5 144t-78.5 65zM330 -184v172q-134 15 -220.5 111t-86.5 231v82h208v-74q0 -51 24.5 -90.5t74.5 -50.5v471l-70 28q-129 53 -178 141.5t-49 233.5
q0 162 76.5 270.5t220.5 128.5v154h104v-154q135 -17 220 -113t85 -216v-103h-209v47q0 145 -96 177v-412l86 -35q131 -50 175 -139t44 -260q0 -397 -305 -428v-172h-104z" />
    <glyph glyph-name="percent" unicode="%" horiz-adv-x="720" 
d="M193 1137q20 0 35.5 15.5t15.5 37.5v104q0 22 -15.5 38t-35.5 16t-36 -16t-16 -38v-104q0 -22 15.5 -37.5t36.5 -15.5zM193 1014q-79 0 -127 43t-48 112v134q0 76 47.5 121.5t127.5 45.5t127 -45.5t47 -121.5v-134q0 -69 -47.5 -112t-126.5 -43zM477 268v-104
q0 -22 15.5 -37.5t35.5 -15.5t36 15.5t16 37.5v104q0 22 -16 38t-36 16t-35.5 -16t-15.5 -38zM528 -12q-79 0 -126.5 43t-47.5 112v133q0 77 47.5 122.5t126.5 45.5t126.5 -45.5t47.5 -122.5v-133q0 -69 -47.5 -112t-126.5 -43zM43 0l500 1458h135l-500 -1458h-135z" />
    <glyph glyph-name="ampersand" unicode="&#x26;" horiz-adv-x="985" 
d="M723 0l-70 111q-123 -123 -278 -123q-127 0 -214 94.5t-87 243.5q0 112 52.5 203t147.5 176q-127 178 -127 335q0 123 74.5 203t210.5 80q129 0 203 -76t74 -188q0 -178 -213 -367q4 -6 76.5 -125t115.5 -180l113 154l129 -90l-156 -201l158 -250h-209zM258 336
q0 -76 44.5 -130t111.5 -54q43 0 85.5 27t69.5 61l-200 319q-111 -115 -111 -223zM332 1036q0 -79 80 -211q125 120 125 230q0 40 -28.5 72t-72.5 32q-46 0 -75 -37t-29 -86z" />
    <glyph glyph-name="quotesingle" unicode="'" horiz-adv-x="380" 
d="M109 1098v360h163v-360h-163z" />
    <glyph glyph-name="parenleft" unicode="(" horiz-adv-x="454" 
d="M346 1458h70q-105 -369 -105 -889q0 -395 105 -774h-70q-118 171 -181 397t-63 435q0 213 65.5 437.5t178.5 393.5z" />
    <glyph glyph-name="parenright" unicode=")" horiz-adv-x="454" 
d="M109 -205h-70q104 365 104 889q0 399 -104 774h70q118 -171 180.5 -396.5t62.5 -434.5q0 -213 -65 -438t-178 -394z" />
    <glyph glyph-name="asterisk" unicode="*" 
d="M63 1237l58 106l201 -122l-9 237h131l-8 -237l201 122l57 -106l-205 -115l205 -112l-57 -109l-201 123l8 -238h-131l9 238l-201 -123l-58 109l205 112z" />
    <glyph glyph-name="plus" unicode="+" horiz-adv-x="1228" 
d="M532 600v436h164v-436h437v-164h-437v-436h-164v436h-436v164h436z" />
    <glyph glyph-name="comma" unicode="," horiz-adv-x="380" 
d="M86 -152v361h209v-209z" />
    <glyph glyph-name="hyphen" unicode="-" horiz-adv-x="796" 
d="M90 463v209h617v-209h-617z" />
    <glyph glyph-name="period" unicode="." horiz-adv-x="380" 
d="M86 0v209h209v-209h-209z" />
    <glyph glyph-name="slash" unicode="/" horiz-adv-x="454" 
d="M10 -12l271 1482h163l-270 -1482h-164z" />
    <glyph glyph-name="zero" unicode="0" horiz-adv-x="761" 
d="M70 301v856q0 141 90.5 227t220.5 86t220.5 -86t90.5 -227v-856q0 -141 -90.5 -227t-220.5 -86t-220.5 86t-90.5 227zM279 1157v-856q0 -44 29 -74t73 -30t73 30t29 74v856q0 45 -29 75t-73 30t-73 -30t-29 -75z" />
    <glyph glyph-name="one" unicode="1" horiz-adv-x="761" 
d="M317 0v1237l-208 -154v222l208 153h209v-1458h-209z" />
    <glyph glyph-name="two" unicode="2" horiz-adv-x="761" 
d="M70 0v197l376 710q25 49 31 86t6 107q0 30 -0.5 46t-6 42t-15.5 39.5t-30.5 24t-49.5 10.5q-47 0 -74.5 -27.5t-27.5 -77.5v-119h-209v115q0 131 91.5 224t221.5 93q79 0 139.5 -29.5t97 -81t54.5 -116t18 -139.5q0 -111 -11 -162t-58 -141l-308 -592h377v-209h-622z" />
    <glyph glyph-name="three" unicode="3" horiz-adv-x="761" 
d="M317 659v185q98 0 132 24t34 103v188q0 45 -28 74t-74 29q-51 0 -76.5 -32.5t-25.5 -70.5v-119h-209v121q0 128 92.5 218.5t222.5 90.5q77 0 135 -30.5t92 -71.5q45 -53 62.5 -115t17.5 -194q0 -67 -2.5 -103.5t-8.5 -69t-21.5 -53t-37 -38.5t-59.5 -41q25 -15 42.5 -28
t32 -29.5t23 -28t15 -34.5t9.5 -37.5t5 -49t2 -56.5v-71q0 -140 -10.5 -195t-44.5 -104q-89 -133 -258 -133q-53 0 -105 17t-99 52t-76 97.5t-29 144.5v119h209v-109q0 -50 27.5 -81t74.5 -31t74.5 31t27.5 85v209q0 84 -32 110.5t-134 26.5z" />
    <glyph glyph-name="four" unicode="4" horiz-adv-x="761" 
d="M434 0v217h-416v197l301 1044h222l-314 -1044h207v415h209v-415h100v-197h-100v-217h-209z" />
    <glyph glyph-name="five" unicode="5" horiz-adv-x="761" 
d="M692 1458v-196h-413v-394q72 68 174 68q108 0 173.5 -67.5t65.5 -190.5v-377q0 -141 -90.5 -227t-220.5 -86t-220.5 86t-90.5 227v61h209v-53q0 -53 29.5 -82.5t76.5 -29.5q46 0 72 28.5t26 79.5v342q0 43 -28 74t-70 31q-25 0 -44 -7.5t-32.5 -24.5t-17 -23.5
t-12.5 -24.5h-185v786h598z" />
    <glyph glyph-name="six" unicode="6" horiz-adv-x="761" 
d="M616 1458l-237 -612l4 -4q25 18 88 18q54 0 101.5 -26.5t74.5 -67.5q28 -43 36.5 -106t8.5 -234q0 -140 -8.5 -193.5t-38.5 -103.5q-40 -67 -109 -104t-155 -37q-84 0 -152 37t-110 104q-31 50 -40 103t-9 194q0 128 8 182t31 117l274 733h233zM483 301v270
q0 46 -30.5 75.5t-71.5 29.5t-71.5 -29.5t-30.5 -75.5v-270q0 -46 30.5 -75t71.5 -29t71.5 29t30.5 75z" />
    <glyph glyph-name="seven" unicode="7" horiz-adv-x="761" 
d="M117 0l366 1262h-229v-168h-184v364h622v-209l-354 -1249h-221z" />
    <glyph glyph-name="eight" unicode="8" horiz-adv-x="761" 
d="M483 946v213q0 42 -31 72.5t-71 30.5t-71 -30.5t-31 -72.5v-213q0 -42 31 -72t71 -30t71 30t31 72zM70 1077q0 115 16 170.5t59 110.5q41 54 103 83t133 29t132.5 -29t102.5 -83q44 -56 60 -111t16 -170q0 -140 -16.5 -197t-87.5 -114q71 -54 87.5 -117.5t16.5 -240.5
q0 -129 -11.5 -185.5t-45.5 -105.5q-38 -58 -103 -93.5t-151 -35.5t-151 35.5t-103 93.5q-34 49 -45.5 105.5t-11.5 185.5q0 177 16.5 240.5t87.5 117.5q-71 57 -87.5 114t-16.5 197zM483 299v287q0 42 -31 72t-71 30t-71 -30t-31 -72v-287q0 -42 31 -72t71 -30t71 30t31 72
z" />
    <glyph glyph-name="nine" unicode="9" horiz-adv-x="761" 
d="M145 0l238 612l-4 4q-25 -18 -88 -18q-54 0 -101.5 26.5t-74.5 67.5q-28 43 -36.5 106t-8.5 234q0 140 8.5 193.5t38.5 103.5q40 67 109 104t155 37q84 0 152 -37t110 -104q31 -50 40 -103t9 -194q0 -128 -8 -182t-31 -117l-274 -733h-234zM279 1157v-270
q0 -46 30.5 -75.5t71.5 -29.5t71.5 29.5t30.5 75.5v270q0 46 -30.5 75.5t-71.5 29.5t-71.5 -29.5t-30.5 -75.5z" />
    <glyph glyph-name="colon" unicode=":" horiz-adv-x="380" 
d="M86 0v209h209v-209h-209zM86 465v209h209v-209h-209z" />
    <glyph glyph-name="semicolon" unicode=";" horiz-adv-x="380" 
d="M86 -152v361h209v-209zM86 465v209h209v-209h-209z" />
    <glyph glyph-name="less" unicode="&#x3c;" horiz-adv-x="1228" 
d="M1133 1053v-164l-814 -371l814 -371v-163l-1037 473v123z" />
    <glyph glyph-name="equal" unicode="=" horiz-adv-x="1228" 
d="M96 641v164h1037v-164h-1037zM96 231v164h1037v-164h-1037z" />
    <glyph glyph-name="greater" unicode="&#x3e;" horiz-adv-x="1228" 
d="M96 -16v163l813 371l-813 371v164l1037 -473v-123z" />
    <glyph glyph-name="question" unicode="?" 
d="M66 1038v121q0 129 92 220t223 91q75 0 138 -30t104 -86q41 -55 55 -105.5t14 -144.5q0 -106 -6.5 -153.5t-26.5 -80.5l-141 -241q-35 -64 -35 -105v-164h-209v191q0 80 52 166l131 213q26 46 26 119v108q0 43 -30 74t-72 31q-41 0 -74 -28.5t-33 -76.5v-119h-208zM274 0
v209h209v-209h-209z" />
    <glyph glyph-name="at" unicode="@" horiz-adv-x="1638" 
d="M1051 840q0 75 -40.5 122.5t-111.5 47.5q-85 0 -159.5 -64.5t-115 -156.5t-40.5 -179q0 -85 46 -131.5t124 -46.5q74 0 144.5 68t111.5 162.5t41 177.5zM1309 1122l-179 -563q-20 -62 -20 -92q0 -59 47 -59q63 0 129 68.5t108 172t42 199.5q0 139 -76.5 252t-202 174
t-270.5 61q-126 0 -241.5 -51t-197.5 -135t-131 -196t-49 -230q0 -165 83 -302.5t227.5 -217.5t318.5 -80q145 0 284.5 62t213.5 153h157q-99 -163 -279.5 -256.5t-391.5 -93.5q-212 0 -388 96t-279 267.5t-103 381.5q0 201 105 371t283 268t386 98q192 0 353.5 -77.5
t258 -218.5t96.5 -316q0 -98 -31.5 -190t-82.5 -160t-113 -119.5t-124.5 -77.5t-115.5 -26q-144 0 -159 129h-4q-29 -31 -47.5 -48t-50.5 -39t-69.5 -32t-82.5 -10q-129 0 -211 90t-82 221q0 81 22 162t64.5 152.5t99.5 127t133 87.5t160 32q77 0 142 -40.5t94 -119.5h4
l41 125h129z" />
    <glyph glyph-name="A" unicode="A" horiz-adv-x="833" 
d="M520 510l-102 528h-4l-103 -528h209zM4 0l326 1458h174l325 -1458h-208l-62 313h-285l-61 -313h-209z" />
    <glyph glyph-name="B" unicode="B" horiz-adv-x="872" 
d="M98 0v1458h305q98 0 171.5 -30.5t116 -83t63 -116.5t20.5 -138v-54q0 -110 -33.5 -166.5t-109.5 -103.5q74 -35 108.5 -104t34.5 -183v-82q0 -397 -391 -397h-285zM307 676v-467h90q49 0 83 12.5t53 32t29.5 54t13 66t2.5 81.5q0 118 -35.5 169.5t-143.5 51.5h-92z
M307 1262v-402h94q100 0 138.5 49.5t38.5 155.5q0 100 -42.5 148.5t-142.5 48.5h-86z" />
    <glyph glyph-name="C" unicode="C" horiz-adv-x="833" 
d="M762 416v-90q0 -137 -97 -237.5t-235 -100.5q-65 0 -122 17t-109 54.5t-82.5 107.5t-30.5 165v803q0 144 95 239.5t245 95.5q145 0 240.5 -98t95.5 -250v-82h-209v70q0 64 -35.5 108t-93.5 44q-73 0 -101 -44t-28 -126v-746q0 -149 127 -149q52 0 91.5 34.5t39.5 112.5
v72h209z" />
    <glyph glyph-name="D" unicode="D" horiz-adv-x="872" 
d="M98 0v1458h310q176 0 271 -99.5t95 -277.5v-682q0 -200 -99 -299.5t-286 -99.5h-291zM307 1262v-1065h96q87 0 124.5 43.5t37.5 138.5v702q0 91 -36.5 136t-125.5 45h-96z" />
    <glyph glyph-name="E" unicode="E" 
d="M98 0v1458h623v-196h-414v-428h361v-197h-361v-428h414v-209h-623z" />
    <glyph glyph-name="F" unicode="F" 
d="M98 0v1458h623v-196h-414v-443h361v-196h-361v-623h-209z" />
    <glyph glyph-name="G" unicode="G" horiz-adv-x="872" 
d="M86 344v770q0 86 30.5 155.5t81 112.5t112 65.5t126.5 22.5t126.5 -22.5t112 -65.5t81 -112.5t30.5 -155.5v-74h-208v74q0 71 -40.5 109.5t-101.5 38.5t-101 -38t-40 -110v-770q0 -71 40 -109t101 -38t101.5 38t40.5 109v274h-166v185h374v-459q0 -86 -30.5 -155.5
t-81 -112.5t-112 -65.5t-126.5 -22.5t-126.5 22.5t-112 65.5t-81 112.5t-30.5 155.5z" />
    <glyph glyph-name="H" unicode="H" horiz-adv-x="872" 
d="M98 0v1458h209v-624h258v624h209v-1458h-209v649h-258v-649h-209z" />
    <glyph glyph-name="I" unicode="I" horiz-adv-x="417" 
d="M104 0v1458h209v-1458h-209z" />
    <glyph glyph-name="J" unicode="J" horiz-adv-x="681" 
d="M584 1458v-1114q0 -150 -97.5 -253t-259.5 -103q-155 0 -272 131l164 131q53 -53 114 -53q22 0 44 7.5t45.5 25.5t38 55t14.5 88v1085h209z" />
    <glyph glyph-name="K" unicode="K" horiz-adv-x="872" 
d="M98 0v1458h209v-665h4l305 665h209l-284 -584l338 -874h-222l-237 647l-113 -211v-436h-209z" />
    <glyph glyph-name="L" unicode="L" 
d="M98 0v1458h209v-1249h414v-209h-623z" />
    <glyph glyph-name="M" unicode="M" horiz-adv-x="1138" 
d="M98 0v1458h201l268 -772h4l267 772h202v-1458h-209v887h-4l-206 -627h-105l-205 627h-4v-887h-209z" />
    <glyph glyph-name="N" unicode="N" horiz-adv-x="909" 
d="M90 0v1458h201l315 -878h4v878h209v-1458h-196l-320 877h-4v-877h-209z" />
    <glyph glyph-name="O" unicode="O" horiz-adv-x="872" 
d="M86 344v770q0 86 30.5 155.5t81 112.5t112 65.5t126.5 22.5t126.5 -22.5t112 -65.5t81 -112.5t30.5 -155.5v-770q0 -86 -30.5 -155.5t-81 -112.5t-112 -65.5t-126.5 -22.5t-126.5 22.5t-112 65.5t-81 112.5t-30.5 155.5zM295 1114v-770q0 -71 40 -109t101 -38t101.5 38
t40.5 109v770q0 71 -40.5 109.5t-101.5 38.5t-101 -38t-40 -110z" />
    <glyph glyph-name="P" unicode="P" horiz-adv-x="833" 
d="M98 0v1458h314q89 0 153 -23.5t117 -78.5q53 -56 73.5 -132.5t20.5 -209.5q0 -103 -12 -169.5t-47 -123.5q-92 -152 -303 -152h-107v-569h-209zM307 1262v-496h101q31 0 56 4t42.5 14.5t30.5 20.5t21 30t12.5 35t6.5 43t2.5 46.5t0.5 52.5t-0.5 50.5t-2 45.5t-6 44
t-12 36t-19.5 31.5t-29 22t-41 16t-54 4.5h-109z" />
    <glyph glyph-name="Q" unicode="Q" horiz-adv-x="872" 
d="M295 1114v-770q0 -71 40 -109t101 -38q26 0 45 8l-94 76l107 127l84 -68v4v770q0 71 -40.5 109.5t-101.5 38.5t-101 -38t-40 -110zM86 344v770q0 86 30.5 155.5t81 112.5t112 65.5t126.5 22.5t126.5 -22.5t112 -65.5t81 -112.5t30.5 -155.5v-770q0 -84 -30 -149l129 -105
l-107 -127l-123 100q-93 -75 -219 -75q-65 0 -126.5 22.5t-112 65.5t-81 112.5t-30.5 155.5z" />
    <glyph glyph-name="R" unicode="R" horiz-adv-x="872" 
d="M307 1262v-455h119q102 0 135 53.5t33 173.5q0 60 -6.5 98.5t-24.5 70t-54 45.5t-93 14h-109zM98 0v1458h336q369 0 369 -428q0 -131 -42 -220.5t-138 -143.5l225 -666h-221l-195 623h-125v-623h-209z" />
    <glyph glyph-name="S" unicode="S" horiz-adv-x="831" 
d="M774 1141v-103h-209v47q0 78 -36 127.5t-111 49.5q-142 0 -142 -189q0 -90 20.5 -126.5t98.5 -67.5l160 -64q131 -50 175 -139t44 -260q0 -428 -360 -428q-152 0 -254.5 99t-102.5 247v78h209v-66q0 -63 37 -106t111 -43q51 0 82.5 14t46 46t18.5 65.5t4 91.5
q0 80 -10 119t-33 59.5t-78 42.5l-149 61q-129 53 -178 141.5t-49 233.5q0 174 92.5 286.5t265.5 112.5q100 0 181.5 -48.5t124 -123.5t42.5 -157z" />
    <glyph glyph-name="T" unicode="T" horiz-adv-x="679" 
d="M236 0v1262h-242v196h692v-196h-242v-1262h-208z" />
    <glyph glyph-name="U" unicode="U" horiz-adv-x="872" 
d="M774 1458v-1130q0 -142 -99 -241t-239 -99t-239 99t-99 241v1130h209v-1110q0 -74 35.5 -112.5t93.5 -38.5t93.5 38.5t35.5 112.5v1110h209z" />
    <glyph glyph-name="V" unicode="V" horiz-adv-x="833" 
d="M807 1458l-299 -1458h-184l-297 1458h221l166 -1018h4l168 1018h221z" />
    <glyph glyph-name="W" unicode="W" horiz-adv-x="1214" 
d="M1182 1458l-217 -1458h-197l-160 946h-4l-158 -946h-196l-217 1458h221l104 -926h4l164 926h160l170 -948h4l101 948h221z" />
    <glyph glyph-name="X" unicode="X" horiz-adv-x="796" 
d="M-4 0l295 764l-273 694h222l157 -432l160 432h221l-278 -694l301 -764h-221l-183 492l-180 -492h-221z" />
    <glyph glyph-name="Y" unicode="Y" horiz-adv-x="794" 
d="M293 0v616l-287 842h221l168 -579h4l168 579h221l-286 -842v-616h-209z" />
    <glyph glyph-name="Z" unicode="Z" horiz-adv-x="681" 
d="M31 0v184l393 1078h-373v196h600v-166l-401 -1095h401v-197h-620z" />
    <glyph glyph-name="bracketleft" unicode="[" horiz-adv-x="454" 
d="M438 1458v-123h-135v-1417h135v-123h-319v1663h319z" />
    <glyph glyph-name="backslash" unicode="\" horiz-adv-x="454" 
d="M174 1470l270 -1482h-163l-271 1482h164z" />
    <glyph glyph-name="bracketright" unicode="]" horiz-adv-x="454" 
d="M16 -205v123h136v1417h-136v123h320v-1663h-320z" />
    <glyph glyph-name="asciicircum" unicode="^" horiz-adv-x="1228" 
d="M102 580l445 878h135l444 -878h-163l-349 694l-348 -694h-164z" />
    <glyph glyph-name="underscore" unicode="_" horiz-adv-x="1024" 
d="M0 -256v102h1024v-102h-1024z" />
    <glyph glyph-name="grave" unicode="`" horiz-adv-x="380" 
d="M139 1464l185 -288h-136l-270 288h221z" />
    <glyph glyph-name="a" unicode="a" 
d="M481 0v106h-4q-45 -63 -88 -90.5t-113 -27.5q-41 0 -76.5 11.5t-71 39.5t-56.5 86t-21 139q0 93 15 156t52 108.5t101.5 66.5t161.5 21q16 0 49 -2.5t51 -3.5v109q0 123 -104 123q-42 0 -76 -28t-43 -77h-203q9 140 95 226q88 88 227 88q137 0 225 -85.5t88 -242.5v-723
h-209zM481 305v141q-40 7 -57 7q-74 0 -119 -35t-45 -113q0 -61 29 -97t80 -36q53 0 82.5 35t29.5 98z" />
    <glyph glyph-name="b" unicode="b" horiz-adv-x="796" 
d="M86 0v1458h209v-514h4q71 107 193 107q126 0 186 -95q20 -32 26.5 -84t6.5 -167v-396q0 -160 -35 -223q-53 -98 -182 -98q-37 0 -66 7t-54 25t-39 31.5t-40 42.5v-94h-209zM502 338v381q0 123 -103 123q-45 0 -74.5 -32t-29.5 -81v-403q0 -57 28.5 -93t75.5 -36
q52 0 77.5 37.5t25.5 103.5z" />
    <glyph glyph-name="c" unicode="c" 
d="M307 723v-424q0 -49 27.5 -75.5t75.5 -26.5q93 0 102 104h209q0 -134 -84 -221q-89 -92 -227 -92q-93 0 -164 40t-109 109q-39 71 -39 211v342q0 140 39 211q38 69 109 109.5t164 40.5q143 0 227 -92.5t84 -239.5h-209q0 123 -102 123q-48 0 -75.5 -30.5t-27.5 -88.5z
" />
    <glyph glyph-name="d" unicode="d" horiz-adv-x="796" 
d="M295 719v-381q0 -141 102 -141q47 0 76 36t29 93v403q0 49 -30 81t-75 32q-102 0 -102 -123zM502 0v94q-26 -29 -40 -42.5t-39 -31.5t-54 -25t-66 -7q-129 0 -182 98q-35 63 -35 223v396q0 115 6.5 167t26.5 84q60 95 186 95q122 0 193 -107h4v514h209v-1458h-209z" />
    <glyph glyph-name="e" unicode="e" 
d="M690 440h-414v-141q0 -49 27.5 -75.5t75.5 -26.5q93 0 102 104h209q0 -134 -84 -221q-89 -92 -227 -92q-93 0 -164 40t-109 109t-38 211v342q0 142 38 211t109 109.5t164 40.5q142 0 226.5 -92t84.5 -232v-287zM276 723v-119h205v119q0 58 -27 88.5t-75 30.5t-75.5 -30.5
t-27.5 -88.5z" />
    <glyph glyph-name="f" unicode="f" horiz-adv-x="454" 
d="M113 0v874h-103v164h103v142q0 73 22.5 128t61 87t85 47.5t99.5 15.5h96v-196h-94q-29 0 -45 -19t-16 -53v-152h155v-164h-155v-874h-209z" />
    <glyph glyph-name="g" unicode="g" horiz-adv-x="796" 
d="M86 -121h209q2 -40 31 -71t80 -31q96 0 96 112v205h-4q-70 -106 -195 -106q-129 0 -182 98q-35 63 -35 223v396q0 115 6.5 167t26.5 84q60 95 186 95q48 0 86.5 -16.5t57 -34t53.5 -56.5v94h209v-1165q0 -55 -18.5 -107.5t-55 -97.5t-99 -72.5t-141.5 -27.5q-51 0 -99 16
t-93.5 50t-77 97t-41.5 148zM295 700v-381q0 -122 102 -122q45 0 75 31.5t30 80.5v404q0 57 -29 93t-76 36q-102 0 -102 -142z" />
    <glyph glyph-name="h" unicode="h" horiz-adv-x="796" 
d="M86 0v1458h209v-520h4q74 113 197 113q89 0 152 -62.5t63 -191.5v-797h-209v719q0 58 -27 90.5t-76 32.5q-56 0 -80 -36t-24 -108v-698h-209z" />
    <glyph glyph-name="i" unicode="i" horiz-adv-x="380" 
d="M86 0v1038h209v-1038h-209zM86 1249v209h209v-209h-209z" />
    <glyph glyph-name="j" unicode="j" horiz-adv-x="380" 
d="M86 -33v1071h209v-1149q0 -149 -93.5 -229t-246.5 -80v197q76 0 103.5 38.5t27.5 151.5zM86 1249v209h209v-209h-209z" />
    <glyph glyph-name="k" unicode="k" horiz-adv-x="796" 
d="M86 0v1458h209v-872h4l252 452h209l-248 -422l299 -616h-227l-189 449l-100 -158v-291h-209z" />
    <glyph glyph-name="l" unicode="l" horiz-adv-x="380" 
d="M74 279v1179h209v-1165q0 -58 21 -80.5t81 -28.5v-196q-78 0 -131 12t-96 42.5t-63.5 89t-20.5 147.5z" />
    <glyph glyph-name="m" unicode="m" horiz-adv-x="1212" 
d="M86 0v1038h209v-100h4q74 113 197 113q110 0 186 -105q46 51 93.5 78t123.5 27q41 0 79.5 -14t72.5 -42.5t54.5 -79.5t20.5 -118v-797h-208v719q0 58 -27 90.5t-76 32.5q-56 0 -80 -36t-24 -108v-698h-209v719q0 58 -27 90.5t-76 32.5q-56 0 -80 -36t-24 -108v-698h-209z
" />
    <glyph glyph-name="n" unicode="n" horiz-adv-x="796" 
d="M86 0v1038h209v-100h4q74 113 197 113q89 0 152 -62.5t63 -191.5v-797h-209v719q0 58 -27 90.5t-76 32.5q-56 0 -80 -36t-24 -108v-698h-209z" />
    <glyph glyph-name="o" unicode="o" 
d="M68 348v342q0 142 38 211t109 109.5t164 40.5t163.5 -40.5t108.5 -109.5q39 -71 39 -211v-342q0 -140 -39 -211q-38 -69 -108.5 -109t-163.5 -40t-164 40t-109 109t-38 211zM276 723v-408q0 -57 27.5 -87.5t75.5 -30.5t75 30t27 88v408q0 58 -27 88.5t-75 30.5
t-75.5 -30.5t-27.5 -88.5z" />
    <glyph glyph-name="p" unicode="p" horiz-adv-x="796" 
d="M86 -420v1458h209v-94q35 39 54 56.5t57.5 34t87.5 16.5q128 0 182 -99q35 -63 35 -223v-395q0 -115 -6.5 -167.5t-26.5 -84.5q-60 -94 -186 -94q-123 0 -193 106h-4v-514h-209zM502 319v381q0 66 -25.5 104t-77.5 38q-47 0 -75.5 -36t-28.5 -93v-404q0 -49 29.5 -80.5
t74.5 -31.5q103 0 103 122z" />
    <glyph glyph-name="q" unicode="q" horiz-adv-x="796" 
d="M502 -420v514h-4q-70 -106 -193 -106q-126 0 -186 94q-20 32 -26.5 84.5t-6.5 167.5v395q0 160 35 223q54 99 182 99q49 0 87.5 -16.5t57.5 -34t54 -56.5v94h209v-1458h-209zM295 700v-381q0 -122 102 -122q45 0 75 31.5t30 80.5v404q0 57 -29 93t-76 36
q-102 0 -102 -142z" />
    <glyph glyph-name="r" unicode="r" horiz-adv-x="569" 
d="M86 0v1038h209v-110q73 64 132.5 93.5t143.5 29.5v-222q-32 13 -63 13q-36 0 -71 -12t-68 -37t-53.5 -71t-20.5 -106v-616h-209z" />
    <glyph glyph-name="s" unicode="s" horiz-adv-x="720" 
d="M662 748h-197q-1 50 -32 78t-75 28q-47 0 -74.5 -31t-27.5 -73q0 -35 17.5 -60.5t70.5 -46.5l123 -49q205 -78 205 -293q0 -131 -89 -222t-223 -91q-129 0 -217 82.5t-94 230.5h197q16 -117 112 -117q47 0 82 31.5t35 81.5q0 45 -23 75t-81 52l-101 37
q-100 37 -155.5 111t-55.5 176q0 130 90 216.5t218 86.5q127 0 210 -86.5t85 -216.5z" />
    <glyph glyph-name="t" unicode="t" horiz-adv-x="417" 
d="M86 1038v316h209v-316h129v-164h-129v-575q0 -67 26.5 -84.5t102.5 -17.5v-197h-86q-67 0 -118 22t-79 59t-41.5 78t-13.5 85v630h-104v164h104z" />
    <glyph glyph-name="u" unicode="u" horiz-adv-x="796" 
d="M711 1038v-1038h-209v100h-4q-73 -112 -197 -112q-89 0 -152 62.5t-63 191.5v796h209v-719q0 -58 26.5 -90t75.5 -32q57 0 81 35.5t24 107.5v698h209z" />
    <glyph glyph-name="v" unicode="v" horiz-adv-x="720" 
d="M723 1038l-270 -1038h-185l-270 1038h221l139 -663h4l140 663h221z" />
    <glyph glyph-name="w" unicode="w" horiz-adv-x="1097" 
d="M1096 1038l-246 -1038h-184l-115 616h-4l-115 -616h-184l-246 1038h221l127 -645h4l117 645h164l110 -645h5l124 645h222z" />
    <glyph glyph-name="x" unicode="x" horiz-adv-x="679" 
d="M-23 0l256 530l-243 508h221l129 -295l129 295h221l-248 -508l260 -530h-221l-141 317l-141 -317h-222z" />
    <glyph glyph-name="y" unicode="y" horiz-adv-x="720" 
d="M-2 1038h221l143 -647h5l141 647h215l-299 -1218q-58 -240 -289 -240h-57v197h47q45 0 69 17.5t44.5 74t44.5 178.5z" />
    <glyph glyph-name="z" unicode="z" horiz-adv-x="645" 
d="M35 0v166l338 688h-312v184h549v-166l-338 -675h338v-197h-575z" />
    <glyph glyph-name="braceleft" unicode="{" horiz-adv-x="454" 
d="M6 567v123q57 0 94 65t37 165v311q0 104 58 165.5t143 61.5h111v-123h-37q-90 0 -90 -135v-309q0 -122 -44.5 -187.5t-97.5 -74.5v-4q24 -4 47 -20t45 -45t36 -81t14 -119v-305q0 -137 90 -137h37v-123h-111q-85 0 -143 62t-58 166v309q0 103 -37 169t-94 66z" />
    <glyph glyph-name="bar" unicode="|" horiz-adv-x="454" 
d="M145 -512v2048h164v-2048h-164z" />
    <glyph glyph-name="braceright" unicode="}" horiz-adv-x="454" 
d="M449 690v-123q-57 0 -94.5 -66.5t-37.5 -168.5v-309q0 -104 -57.5 -166t-142.5 -62h-111v123h37q90 0 90 137v305q0 67 13.5 118.5t36 81t45 45.5t46.5 20v4q-53 9 -97 74.5t-44 187.5v309q0 135 -90 135h-37v123h111q85 0 142.5 -61.5t57.5 -165.5v-311
q0 -100 37.5 -165t94.5 -65z" />
    <glyph glyph-name="asciitilde" unicode="~" horiz-adv-x="1228" 
d="M1014 676l73 -133q-93 -178 -256 -178q-86 0 -227 67q-14 6 -44.5 20t-47.5 21t-40.5 16t-42 13t-34.5 4q-29 0 -54.5 -11.5t-49.5 -37t-38 -44t-38 -53.5l-74 132q93 178 256 178q85 0 228 -68q14 -6 44.5 -20t47.5 -21t40.5 -16t42 -13t34.5 -4q29 0 55 11.5t49.5 36.5
t38 45t37.5 55z" />
    <glyph glyph-name="uni00A0" unicode="&#xa0;" horiz-adv-x="380" 
 />
    <glyph glyph-name="exclamdown" unicode="&#xa1;" horiz-adv-x="491" 
d="M115 -420l80 1098h102l80 -1098h-262zM141 829v209h209v-209h-209z" />
    <glyph glyph-name="cent" unicode="&#xa2;" horiz-adv-x="761" 
d="M336 197v645q-24 -9 -41 -39q-16 -29 -16 -72v-440q0 -74 57 -94zM336 -184v172q-76 6 -135 44.5t-92 98.5q-39 71 -39 211v352q0 140 39 211q33 61 91.5 100t135.5 46v153h84v-153q125 -10 198.5 -101.5t73.5 -230.5h-209q0 101 -63 123v-645q55 19 63 104h209
q0 -138 -84 -225q-76 -79 -188 -88v-172h-84z" />
    <glyph glyph-name="sterling" unicode="&#xa3;" horiz-adv-x="761" 
d="M27 610v146h112q-42 78 -60 145.5t-18 165.5q0 83 19 154t58 127.5t104 89t151 32.5q53 0 104.5 -20t97 -58.5t73.5 -105t28 -149.5v-93h-196v82q0 64 -26 106t-87 42q-68 0 -98.5 -57.5t-30.5 -151.5q0 -137 66 -309h237v-146h-190q1 -2 7.5 -20.5t8 -23t6.5 -21
t6.5 -25.5t4 -25t3.5 -31.5t1 -33.5q0 -108 -66 -223q14 -2 48 -8.5t64.5 -10.5t55.5 -4q41 0 71 12.5t64 53.5l139 -141q-47 -65 -100.5 -93t-126.5 -28q-37 0 -168.5 19.5t-179.5 19.5q-40 0 -88.5 -11t-73.5 -22v176q18 11 59 24.5t72 16.5q55 80 55 178q0 101 -47 221
h-159z" />
    <glyph glyph-name="currency" unicode="&#xa4;" horiz-adv-x="761" 
d="M8 438l86 86q-33 34 -52 89t-19 116q0 130 69 205l-84 86l84 84l84 -86q79 69 205 69q128 0 207 -69l84 86l82 -84l-84 -84q69 -79 69 -207q0 -129 -69 -205l84 -84l-84 -84l-84 84q-75 -69 -205 -69q-127 0 -205 71l-84 -86zM158 729q0 -92 65.5 -157.5t157.5 -65.5
t157.5 65.5t65.5 157.5t-65.5 157.5t-157.5 65.5t-157.5 -65.5t-65.5 -157.5z" />
    <glyph glyph-name="yen" unicode="&#xa5;" horiz-adv-x="761" 
d="M283 0v352h-234v135h234v101h-234v135h201l-242 735h209l162 -579h4l162 579h209l-242 -735h201v-135h-234v-101h234v-135h-234v-352h-196z" />
    <glyph glyph-name="brokenbar" unicode="&#xa6;" horiz-adv-x="454" 
d="M145 -358v716h164v-716h-164zM145 666v716h164v-716h-164z" />
    <glyph glyph-name="section" unicode="&#xa7;" 
d="M666 1190v-94h-174v86q0 51 -27.5 88t-75.5 37q-60 0 -83 -40t-23 -110q0 -75 15 -102.5t81 -69.5l199 -129q73 -47 92.5 -105.5t19.5 -220.5q0 -67 -3 -104.5t-12 -74.5t-29 -60t-51.5 -45t-82.5 -45q100 -51 127 -105.5t27 -183.5q0 -88 -11 -139.5t-41 -94.5
q-35 -50 -99 -80t-134 -30q-79 0 -139 28.5t-92 74t-47 93.5t-15 97v86h174v-84q0 -55 32 -93t81 -38q62 0 89.5 38t27.5 121q0 75 -12.5 105t-53.5 55l-242 148q-77 47 -96.5 111.5t-19.5 219.5q0 177 37 246.5t151 104.5q-50 25 -79.5 50t-44.5 60t-19 69.5t-4 94.5
q0 154 79.5 234.5t200.5 80.5q111 0 194 -74t83 -206zM276 639v-203q0 -44 30 -76t73 -32q41 0 71.5 32t30.5 76v203q0 44 -30.5 76.5t-71.5 32.5q-43 0 -73 -32.5t-30 -76.5z" />
    <glyph glyph-name="dieresis" unicode="&#xa8;" horiz-adv-x="380" 
d="M-68 1200v209h185v-209h-185zM264 1200v209h185v-209h-185z" />
    <glyph glyph-name="copyright" unicode="&#xa9;" horiz-adv-x="1638" 
d="M1073 588h135q-28 -144 -127.5 -232t-234.5 -88q-196 0 -317 132t-121 329q0 204 116.5 333.5t315.5 129.5q144 0 246 -82t122 -227h-135q-18 74 -81.5 124t-149.5 50q-132 0 -209.5 -92.5t-77.5 -231.5q0 -86 35.5 -160.5t103 -122t152.5 -47.5q86 0 149.5 53.5
t77.5 131.5zM1413 729q0 123 -47 235t-126.5 193.5t-189.5 129.5t-231 48t-231 -48t-189.5 -129.5t-126.5 -193.5t-47 -235t47 -235t126.5 -193.5t189.5 -129.5t231 -48t231 48t189.5 129.5t126.5 193.5t47 235zM78 729q0 151 58.5 288.5t157.5 236.5t236.5 157.5
t288.5 58.5q202 0 372.5 -99t270 -269.5t99.5 -372.5t-99.5 -372.5t-270 -269.5t-372.5 -99q-151 0 -288.5 58.5t-236.5 157.5t-157.5 236.5t-58.5 288.5z" />
    <glyph glyph-name="ordfeminine" unicode="&#xaa;" horiz-adv-x="491" 
d="M315 840v63h-4q-30 -38 -56.5 -55t-72.5 -17q-27 0 -51 7t-48.5 24t-39 52.5t-14.5 84.5q0 112 49 165t172 53q10 0 32.5 -2t32.5 -3v50q0 73 -67 73q-29 0 -50.5 -15t-25.5 -46h-135q6 91 61 143q59 53 150 53q90 0 152.5 -52t62.5 -144v-434h-148zM315 1032v76
q-28 4 -36 4q-103 0 -103 -90q0 -59 66 -59q33 0 53 19.5t20 49.5z" />
    <glyph glyph-name="guillemotleft" unicode="&#xab;" horiz-adv-x="872" 
d="M815 981v-209l-207 -205l207 -205v-208l-416 413zM436 981v-209l-207 -205l207 -205v-208l-416 413z" />
    <glyph glyph-name="logicalnot" unicode="&#xac;" horiz-adv-x="1228" 
d="M969 231v410h-873v164h1037v-574h-164z" />
    <glyph glyph-name="uni00AD" unicode="&#xad;" horiz-adv-x="796" 
d="M90 463v209h617v-209h-617z" />
    <glyph glyph-name="registered" unicode="&#xae;" horiz-adv-x="1638" 
d="M674 1038v-243h153q102 0 151.5 30.5t49.5 98.5q0 58 -42.5 86t-115.5 28h-196zM539 297v864h327q297 0 297 -243q0 -114 -60.5 -172t-160.5 -70l248 -379h-164l-248 375h-104v-375h-135zM1413 729q0 123 -47 235t-126.5 193.5t-189.5 129.5t-231 48t-231 -48
t-189.5 -129.5t-126.5 -193.5t-47 -235t47 -235t126.5 -193.5t189.5 -129.5t231 -48t231 48t189.5 129.5t126.5 193.5t47 235zM78 729q0 151 58.5 288.5t157.5 236.5t236.5 157.5t288.5 58.5q202 0 372.5 -99t270 -269.5t99.5 -372.5t-99.5 -372.5t-270 -269.5t-372.5 -99
q-151 0 -288.5 58.5t-236.5 157.5t-157.5 236.5t-58.5 288.5z" />
    <glyph glyph-name="macron" unicode="&#xaf;" horiz-adv-x="380" 
d="M-90 1243v123h561v-123h-561z" />
    <glyph glyph-name="degree" unicode="&#xb0;" horiz-adv-x="532" 
d="M141 1241q0 -53 36.5 -89t88.5 -36t88.5 36t36.5 89t-36.5 89t-88.5 36t-88.5 -36t-36.5 -89zM37 1241q0 95 67 162t162 67t162.5 -67t67.5 -162t-67.5 -162t-162.5 -67t-162 67t-67 162z" />
    <glyph glyph-name="plusminus" unicode="&#xb1;" horiz-adv-x="1228" 
d="M532 213v330h-436v164h436v329h164v-329h437v-164h-437v-330h-164zM96 0v164h1037v-164h-1037z" />
    <glyph glyph-name="two.superior" unicode="&#xb2;" horiz-adv-x="495" 
d="M23 1196v74q0 86 64.5 143t160.5 57q94 0 159.5 -53t65.5 -133v-67q0 -50 -11 -81.5t-36 -72.5l-195 -328h242v-147h-450v110l262 435q24 43 24 79v48q0 29 -19.5 46t-43.5 17q-25 0 -42.5 -17t-17.5 -46v-64h-163z" />
    <glyph glyph-name="three.superior" unicode="&#xb3;" horiz-adv-x="495" 
d="M205 971v135q61 0 82 14t22 56v86q0 27 -17 44t-44 17q-29 0 -45.5 -19.5t-16.5 -41.5v-54h-163v66q0 86 64 141t165 55q107 0 164 -60.5t57 -143.5v-84q0 -50 -16.5 -82.5t-67.5 -59.5q48 -28 66 -62t18 -87v-105q0 -84 -56.5 -145t-168.5 -61q-95 0 -160 46.5
t-65 145.5v70h163v-47q0 -31 17 -49.5t45 -18.5q26 0 43.5 18.5t17.5 42.5v107q0 46 -20.5 61t-83.5 15z" />
    <glyph glyph-name="acute" unicode="&#xb4;" horiz-adv-x="380" 
d="M57 1176l185 288h221l-270 -288h-136z" />
    <glyph glyph-name="mu" unicode="&#xb5;" horiz-adv-x="796" 
d="M711 1038v-1038h-209v100h-4q-25 -54 -66 -86q-36 -26 -70 -26q-43 0 -63 20h-4v-428h-209v1458h209v-719q0 -58 26.5 -90t75.5 -32q57 0 81 35.5t24 107.5v698h209z" />
    <glyph glyph-name="paragraph" unicode="&#xb6;" horiz-adv-x="909" 
d="M373 -420v1104q-137 0 -247 112.5t-110 268.5q0 194 120.5 293.5t326.5 99.5h352v-1878h-147v1774h-148v-1774h-147z" />
    <glyph glyph-name="periodcentered" unicode="&#xb7;" horiz-adv-x="380" 
d="M59 610q0 54 38.5 92.5t92.5 38.5t93 -38.5t39 -92.5t-39 -92.5t-93 -38.5t-92.5 38.5t-38.5 92.5z" />
    <glyph glyph-name="cedilla" unicode="&#xb8;" horiz-adv-x="380" 
d="M41 -176l133 176h94l-94 -123q40 4 64 4q92 0 133 -46.5t41 -106.5q0 -63 -40.5 -107t-95.5 -62t-116 -18q-82 0 -191 39l35 86q83 -31 133 -31q44 0 77.5 18.5t33.5 65.5q0 34 -27.5 56t-64.5 22q-42 0 -80 -14z" />
    <glyph glyph-name="one.superior" unicode="&#xb9;" horiz-adv-x="495" 
d="M190 588v723l-135 -88v147l135 88h164v-870h-164z" />
    <glyph glyph-name="ordmasculine" unicode="&#xba;" horiz-adv-x="491" 
d="M37 1034v234q0 89 57.5 145.5t151.5 56.5t151.5 -56.5t57.5 -145.5v-234q0 -89 -57.5 -146t-151.5 -57t-151.5 57t-57.5 146zM184 1264v-228q0 -69 62 -69q61 0 61 69v228q0 71 -61 71q-62 0 -62 -71z" />
    <glyph glyph-name="guillemotright" unicode="&#xbb;" horiz-adv-x="872" 
d="M436 154v208l207 205l-207 205v209l416 -414zM57 154v208l207 205l-207 205v209l416 -414z" />
    <glyph glyph-name="onequarter" unicode="&#xbc;" horiz-adv-x="1136" 
d="M37 -35l895 1528h123l-895 -1528h-123zM158 588v723l-135 -88v147l135 88h164v-870h-164zM889 0v127h-293v127l201 620h164l-193 -612h121v236h164v-236h61v-135h-61v-127h-164z" />
    <glyph glyph-name="onehalf" unicode="&#xbd;" horiz-adv-x="1136" 
d="M37 -35l895 1528h123l-895 -1528h-123zM158 588v723l-135 -88v147l135 88h164v-870h-164zM659 0v111l267 434q24 43 24 80v47q0 29 -19.5 46t-43.5 17q-27 0 -45.5 -16.5t-18.5 -46.5v-64h-164v74q0 86 66 143.5t164 57.5q94 0 159.5 -53t65.5 -134v-67q0 -50 -11 -81.5
t-36 -72.5l-195 -328h242v-147h-455z" />
    <glyph glyph-name="threequarters" unicode="&#xbe;" horiz-adv-x="1136" 
d="M76 -35l895 1528h123l-895 -1528h-123zM205 971v135q61 0 82 14t22 56v86q0 27 -17 44t-44 17q-29 0 -45.5 -19.5t-16.5 -41.5v-54h-163v66q0 86 64 141t165 55q107 0 164 -60.5t57 -143.5v-84q0 -50 -16.5 -82.5t-67.5 -59.5q48 -28 66 -62t18 -87v-105
q0 -84 -56.5 -145t-168.5 -61q-95 0 -160 46.5t-65 145.5v70h163v-47q0 -31 17 -49.5t45 -18.5q26 0 43.5 18.5t17.5 42.5v107q0 46 -20.5 61t-83.5 15zM889 0v127h-293v127l201 620h164l-193 -612h121v236h164v-236h61v-135h-61v-127h-164z" />
    <glyph glyph-name="questiondown" unicode="&#xbf;" 
d="M692 0v-121q0 -129 -92 -220t-223 -91q-75 0 -138 30.5t-104 86.5t-55 105.5t-14 143.5q0 107 6 154t26 80l142 242q34 62 34 104v164h209v-191q0 -81 -51 -165l-131 -213q-27 -47 -27 -119v-109q0 -43 30 -73.5t73 -30.5q41 0 73.5 28t32.5 76v119h209zM483 1038v-209
h-209v209h209z" />
    <glyph glyph-name="Agrave" unicode="&#xc0;" horiz-adv-x="833" 
d="M520 510l-102 528h-4l-103 -528h209zM4 0l326 1458h174l325 -1458h-208l-62 313h-285l-61 -313h-209zM367 1812l184 -288h-135l-271 288h222z" />
    <glyph glyph-name="Aacute" unicode="&#xc1;" horiz-adv-x="833" 
d="M520 510l-102 528h-4l-103 -528h209zM4 0l326 1458h174l325 -1458h-208l-62 313h-285l-61 -313h-209zM285 1524l184 288h221l-270 -288h-135z" />
    <glyph glyph-name="Acircumflex" unicode="&#xc2;" horiz-adv-x="833" 
d="M520 510l-102 528h-4l-103 -528h209zM4 0l326 1458h174l325 -1458h-208l-62 313h-285l-61 -313h-209zM121 1524l201 288h192l201 -288h-160l-137 194l-137 -194h-160z" />
    <glyph glyph-name="Atilde" unicode="&#xc3;" horiz-adv-x="833" 
d="M520 510l-102 528h-4l-103 -528h209zM4 0l326 1458h174l325 -1458h-208l-62 313h-285l-61 -313h-209zM662 1780h104q-21 -106 -68.5 -167t-138.5 -61q-33 0 -153 41t-142 41q-41 0 -64.5 -25.5t-25.5 -66.5h-104q21 106 68 166.5t138 60.5q34 0 154.5 -40.5t140.5 -40.5
q42 0 65.5 25.5t25.5 66.5z" />
    <glyph glyph-name="Adieresis" unicode="&#xc4;" horiz-adv-x="833" 
d="M520 510l-102 528h-4l-103 -528h209zM4 0l326 1458h174l325 -1458h-208l-62 313h-285l-61 -313h-209zM160 1548v209h184v-209h-184zM492 1548v209h184v-209h-184z" />
    <glyph glyph-name="Aring" unicode="&#xc5;" horiz-adv-x="833" 
d="M520 510l-102 528h-4l-103 -528h209zM4 0l326 1458h174l325 -1458h-208l-62 313h-285l-61 -313h-209zM209 1710q0 86 61.5 147.5t147.5 61.5t147.5 -62t61.5 -147q0 -86 -61.5 -147.5t-147.5 -61.5t-147.5 62t-61.5 147zM293 1710q0 -52 36.5 -88.5t88.5 -36.5t88.5 36.5
t36.5 88.5t-36.5 88.5t-88.5 36.5t-88.5 -36.5t-36.5 -88.5z" />
    <glyph glyph-name="AE" unicode="&#xc6;" horiz-adv-x="1251" 
d="M4 0l414 1458h796v-196h-413v-428h360v-197h-360v-428h413v-209h-622v313h-287l-80 -313h-221zM592 510v752h-49l-189 -752h238z" />
    <glyph glyph-name="Ccedilla" unicode="&#xc7;" horiz-adv-x="833" 
d="M268 -176l125 164q-47 4 -89.5 16.5t-83 39t-70 64.5t-47 95.5t-17.5 128.5v803q0 144 95 239.5t245 95.5q145 0 240.5 -98t95.5 -250v-82h-209v70q0 64 -35.5 108t-93.5 44q-73 0 -101 -44t-28 -126v-746q0 -149 127 -149q52 0 91.5 34.5t39.5 112.5v72h209v-90
q0 -120 -77.5 -215.5t-195.5 -118.5l-88 -115q40 4 64 4q92 0 133 -46.5t41 -106.5q0 -63 -40.5 -107t-95.5 -62t-116 -18q-81 0 -190 39l34 86q83 -31 134 -31q44 0 77 18.5t33 65.5q0 34 -27.5 56t-64.5 22q-42 0 -80 -14z" />
    <glyph glyph-name="Egrave" unicode="&#xc8;" 
d="M98 0v1458h623v-196h-414v-428h361v-197h-361v-428h414v-209h-623zM348 1812l184 -288h-135l-270 288h221z" />
    <glyph glyph-name="Eacute" unicode="&#xc9;" 
d="M98 0v1458h623v-196h-414v-428h361v-197h-361v-428h414v-209h-623zM266 1524l185 288h221l-271 -288h-135z" />
    <glyph glyph-name="Ecircumflex" unicode="&#xca;" 
d="M98 0v1458h623v-196h-414v-428h361v-197h-361v-428h414v-209h-623zM102 1524l201 288h193l200 -288h-159l-138 194l-137 -194h-160z" />
    <glyph glyph-name="Edieresis" unicode="&#xcb;" 
d="M98 0v1458h623v-196h-414v-428h361v-197h-361v-428h414v-209h-623zM141 1548v209h185v-209h-185zM473 1548v209h184v-209h-184z" />
    <glyph glyph-name="Igrave" unicode="&#xcc;" horiz-adv-x="417" 
d="M104 0v1458h209v-1458h-209zM158 1812l184 -288h-135l-270 288h221z" />
    <glyph glyph-name="Iacute" unicode="&#xcd;" horiz-adv-x="417" 
d="M104 0v1458h209v-1458h-209zM76 1524l184 288h221l-270 -288h-135z" />
    <glyph glyph-name="Icircumflex" unicode="&#xce;" horiz-adv-x="417" 
d="M104 0v1458h209v-1458h-209zM-88 1524l201 288h192l201 -288h-160l-137 194l-137 -194h-160z" />
    <glyph glyph-name="Idieresis" unicode="&#xcf;" horiz-adv-x="417" 
d="M104 0v1458h209v-1458h-209zM-49 1548v209h184v-209h-184zM283 1548v209h184v-209h-184z" />
    <glyph glyph-name="Eth" unicode="&#xd0;" horiz-adv-x="872" 
d="M307 1262v-410h144v-135h-144v-520h96q87 0 124.5 43.5t37.5 138.5v702q0 91 -36.5 136t-125.5 45h-96zM98 0v717h-98v135h98v606h310q176 0 271 -99.5t95 -277.5v-682q0 -200 -99 -299.5t-286 -99.5h-291z" />
    <glyph glyph-name="Ntilde" unicode="&#xd1;" horiz-adv-x="909" 
d="M90 0v1458h201l315 -878h4v878h209v-1458h-196l-320 877h-4v-877h-209zM698 1780h105q-21 -106 -68.5 -167t-138.5 -61q-34 0 -154 41t-141 41q-41 0 -64.5 -25.5t-25.5 -66.5h-105q21 106 68.5 166.5t138.5 60.5q34 0 154.5 -40.5t140.5 -40.5q41 0 64.5 25.5t25.5 66.5
z" />
    <glyph glyph-name="Ograve" unicode="&#xd2;" horiz-adv-x="872" 
d="M86 344v770q0 86 30.5 155.5t81 112.5t112 65.5t126.5 22.5t126.5 -22.5t112 -65.5t81 -112.5t30.5 -155.5v-770q0 -86 -30.5 -155.5t-81 -112.5t-112 -65.5t-126.5 -22.5t-126.5 22.5t-112 65.5t-81 112.5t-30.5 155.5zM295 1114v-770q0 -71 40 -109t101 -38t101.5 38
t40.5 109v770q0 71 -40.5 109.5t-101.5 38.5t-101 -38t-40 -110zM385 1812l184 -288h-135l-270 288h221z" />
    <glyph glyph-name="Oacute" unicode="&#xd3;" horiz-adv-x="872" 
d="M86 344v770q0 86 30.5 155.5t81 112.5t112 65.5t126.5 22.5t126.5 -22.5t112 -65.5t81 -112.5t30.5 -155.5v-770q0 -86 -30.5 -155.5t-81 -112.5t-112 -65.5t-126.5 -22.5t-126.5 22.5t-112 65.5t-81 112.5t-30.5 155.5zM295 1114v-770q0 -71 40 -109t101 -38t101.5 38
t40.5 109v770q0 71 -40.5 109.5t-101.5 38.5t-101 -38t-40 -110zM303 1524l184 288h222l-271 -288h-135z" />
    <glyph glyph-name="Ocircumflex" unicode="&#xd4;" horiz-adv-x="872" 
d="M86 344v770q0 86 30.5 155.5t81 112.5t112 65.5t126.5 22.5t126.5 -22.5t112 -65.5t81 -112.5t30.5 -155.5v-770q0 -86 -30.5 -155.5t-81 -112.5t-112 -65.5t-126.5 -22.5t-126.5 22.5t-112 65.5t-81 112.5t-30.5 155.5zM295 1114v-770q0 -71 40 -109t101 -38t101.5 38
t40.5 109v770q0 71 -40.5 109.5t-101.5 38.5t-101 -38t-40 -110zM139 1524l201 288h192l201 -288h-160l-137 194l-137 -194h-160z" />
    <glyph glyph-name="Otilde" unicode="&#xd5;" horiz-adv-x="872" 
d="M86 344v770q0 86 30.5 155.5t81 112.5t112 65.5t126.5 22.5t126.5 -22.5t112 -65.5t81 -112.5t30.5 -155.5v-770q0 -86 -30.5 -155.5t-81 -112.5t-112 -65.5t-126.5 -22.5t-126.5 22.5t-112 65.5t-81 112.5t-30.5 155.5zM295 1114v-770q0 -71 40 -109t101 -38t101.5 38
t40.5 109v770q0 71 -40.5 109.5t-101.5 38.5t-101 -38t-40 -110zM680 1780h104q-10 -51 -24.5 -89t-38 -71t-60 -50.5t-83.5 -17.5q-34 0 -153.5 41t-141.5 41q-41 0 -64.5 -25.5t-25.5 -66.5h-105q21 106 68.5 166.5t138.5 60.5q34 0 154.5 -40.5t140.5 -40.5
q41 0 64.5 25.5t25.5 66.5z" />
    <glyph glyph-name="Odieresis" unicode="&#xd6;" horiz-adv-x="872" 
d="M86 344v770q0 86 30.5 155.5t81 112.5t112 65.5t126.5 22.5t126.5 -22.5t112 -65.5t81 -112.5t30.5 -155.5v-770q0 -86 -30.5 -155.5t-81 -112.5t-112 -65.5t-126.5 -22.5t-126.5 22.5t-112 65.5t-81 112.5t-30.5 155.5zM295 1114v-770q0 -71 40 -109t101 -38t101.5 38
t40.5 109v770q0 71 -40.5 109.5t-101.5 38.5t-101 -38t-40 -110zM178 1548v209h184v-209h-184zM510 1548v209h184v-209h-184z" />
    <glyph glyph-name="multiply" unicode="&#xd7;" horiz-adv-x="1228" 
d="M137 158l363 360l-363 363l117 114l360 -360l363 360l115 -114l-361 -363l361 -360l-115 -117l-363 362l-360 -362z" />
    <glyph glyph-name="Oslash" unicode="&#xd8;" horiz-adv-x="872" 
d="M20 -33l103 211q-37 70 -37 166v770q0 86 30.5 155.5t81 112.5t112 65.5t126.5 22.5q153 0 256 -106l82 172l78 -45l-102 -211q36 -67 36 -166v-770q0 -86 -30.5 -155.5t-81 -112.5t-112 -65.5t-126.5 -22.5q-73 0 -140.5 27t-115.5 79l-82 -172zM299 537l279 587
q-4 67 -44 102.5t-98 35.5q-61 0 -101 -38t-40 -110v-577h4zM573 920l-278 -586q3 -66 42.5 -101.5t98.5 -35.5q61 0 101.5 38t40.5 109v576h-5z" />
    <glyph glyph-name="Ugrave" unicode="&#xd9;" horiz-adv-x="872" 
d="M774 1458v-1130q0 -142 -99 -241t-239 -99t-239 99t-99 241v1130h209v-1110q0 -74 35.5 -112.5t93.5 -38.5t93.5 38.5t35.5 112.5v1110h209zM385 1812l184 -288h-135l-270 288h221z" />
    <glyph glyph-name="Uacute" unicode="&#xda;" horiz-adv-x="872" 
d="M774 1458v-1130q0 -142 -99 -241t-239 -99t-239 99t-99 241v1130h209v-1110q0 -74 35.5 -112.5t93.5 -38.5t93.5 38.5t35.5 112.5v1110h209zM303 1524l184 288h222l-271 -288h-135z" />
    <glyph glyph-name="Ucircumflex" unicode="&#xdb;" horiz-adv-x="872" 
d="M774 1458v-1130q0 -142 -99 -241t-239 -99t-239 99t-99 241v1130h209v-1110q0 -74 35.5 -112.5t93.5 -38.5t93.5 38.5t35.5 112.5v1110h209zM139 1524l201 288h192l201 -288h-160l-137 194l-137 -194h-160z" />
    <glyph glyph-name="Udieresis" unicode="&#xdc;" horiz-adv-x="872" 
d="M774 1458v-1130q0 -142 -99 -241t-239 -99t-239 99t-99 241v1130h209v-1110q0 -74 35.5 -112.5t93.5 -38.5t93.5 38.5t35.5 112.5v1110h209zM178 1548v209h184v-209h-184zM510 1548v209h184v-209h-184z" />
    <glyph glyph-name="Yacute" unicode="&#xdd;" horiz-adv-x="794" 
d="M293 0v616l-287 842h221l168 -579h4l168 579h221l-286 -842v-616h-209zM264 1524l185 288h221l-271 -288h-135z" />
    <glyph glyph-name="Thorn" unicode="&#xde;" horiz-adv-x="833" 
d="M98 0v1458h209v-254h105q89 0 153 -23.5t117 -78.5q53 -56 73.5 -132.5t20.5 -209.5q0 -103 -12 -169.5t-47 -123.5q-92 -152 -303 -152h-107v-315h-209zM307 1008v-496h101q31 0 56 4t42.5 14.5t30.5 20.5t21 30t12.5 35t6.5 43t2.5 46.5t0.5 52.5t-0.5 50.5t-2 45.5
t-6 44t-12 36t-19.5 31.5t-29 22t-41 16t-54 4.5h-109z" />
    <glyph glyph-name="germandbls" unicode="&#xdf;" horiz-adv-x="796" 
d="M86 0v1130q0 144 79 242t230 98q87 0 149.5 -28t98 -80t52 -117t16.5 -147q0 -109 -23 -158t-98 -96q121 -67 121 -209v-361q0 -74 -17 -127t-43 -83.5t-67.5 -48t-80.5 -22.5t-91 -5v196q47 0 68.5 22t21.5 83v389q0 38 -22 52.5t-68 14.5v185q50 0 70 16t20 64v164
q0 48 -21.5 74t-77.5 26q-59 0 -83.5 -40t-24.5 -140v-1094h-209z" />
    <glyph glyph-name="agrave" unicode="&#xe0;" 
d="M481 0v106h-4q-45 -63 -88 -90.5t-113 -27.5q-41 0 -76.5 11.5t-71 39.5t-56.5 86t-21 139q0 93 15 156t52 108.5t101.5 66.5t161.5 21q16 0 49 -2.5t51 -3.5v109q0 123 -104 123q-42 0 -76 -28t-43 -77h-203q9 140 95 226q88 88 227 88q137 0 225 -85.5t88 -242.5v-723
h-209zM481 305v141q-40 7 -57 7q-74 0 -119 -35t-45 -113q0 -61 29 -97t80 -36q53 0 82.5 35t29.5 98zM328 1464l184 -288h-135l-271 288h222z" />
    <glyph glyph-name="aacute" unicode="&#xe1;" 
d="M481 0v106h-4q-45 -63 -88 -90.5t-113 -27.5q-41 0 -76.5 11.5t-71 39.5t-56.5 86t-21 139q0 93 15 156t52 108.5t101.5 66.5t161.5 21q16 0 49 -2.5t51 -3.5v109q0 123 -104 123q-42 0 -76 -28t-43 -77h-203q9 140 95 226q88 88 227 88q137 0 225 -85.5t88 -242.5v-723
h-209zM481 305v141q-40 7 -57 7q-74 0 -119 -35t-45 -113q0 -61 29 -97t80 -36q53 0 82.5 35t29.5 98zM246 1176l184 288h221l-270 -288h-135z" />
    <glyph glyph-name="acircumflex" unicode="&#xe2;" 
d="M481 0v106h-4q-45 -63 -88 -90.5t-113 -27.5q-41 0 -76.5 11.5t-71 39.5t-56.5 86t-21 139q0 93 15 156t52 108.5t101.5 66.5t161.5 21q16 0 49 -2.5t51 -3.5v109q0 123 -104 123q-42 0 -76 -28t-43 -77h-203q9 140 95 226q88 88 227 88q137 0 225 -85.5t88 -242.5v-723
h-209zM481 305v141q-40 7 -57 7q-74 0 -119 -35t-45 -113q0 -61 29 -97t80 -36q53 0 82.5 35t29.5 98zM82 1176l201 288h192l201 -288h-160l-137 194l-137 -194h-160z" />
    <glyph glyph-name="atilde" unicode="&#xe3;" 
d="M481 0v106h-4q-45 -63 -88 -90.5t-113 -27.5q-41 0 -76.5 11.5t-71 39.5t-56.5 86t-21 139q0 93 15 156t52 108.5t101.5 66.5t161.5 21q16 0 49 -2.5t51 -3.5v109q0 123 -104 123q-42 0 -76 -28t-43 -77h-203q9 140 95 226q88 88 227 88q137 0 225 -85.5t88 -242.5v-723
h-209zM481 305v141q-40 7 -57 7q-74 0 -119 -35t-45 -113q0 -61 29 -97t80 -36q53 0 82.5 35t29.5 98zM623 1432h104q-21 -106 -68.5 -167t-138.5 -61q-34 0 -154 41t-141 41q-41 0 -64.5 -25.5t-25.5 -66.5h-104q21 106 68.5 166.5t138.5 60.5q34 0 154 -41t140 -41
q42 0 65.5 26t25.5 67z" />
    <glyph glyph-name="adieresis" unicode="&#xe4;" 
d="M481 0v106h-4q-45 -63 -88 -90.5t-113 -27.5q-41 0 -76.5 11.5t-71 39.5t-56.5 86t-21 139q0 93 15 156t52 108.5t101.5 66.5t161.5 21q16 0 49 -2.5t51 -3.5v109q0 123 -104 123q-42 0 -76 -28t-43 -77h-203q9 140 95 226q88 88 227 88q137 0 225 -85.5t88 -242.5v-723
h-209zM481 305v141q-40 7 -57 7q-74 0 -119 -35t-45 -113q0 -61 29 -97t80 -36q53 0 82.5 35t29.5 98zM121 1200v209h184v-209h-184zM453 1200v209h184v-209h-184z" />
    <glyph glyph-name="aring" unicode="&#xe5;" 
d="M481 0v106h-4q-45 -63 -88 -90.5t-113 -27.5q-41 0 -76.5 11.5t-71 39.5t-56.5 86t-21 139q0 93 15 156t52 108.5t101.5 66.5t161.5 21q16 0 49 -2.5t51 -3.5v109q0 123 -104 123q-42 0 -76 -28t-43 -77h-203q9 140 95 226q88 88 227 88q137 0 225 -85.5t88 -242.5v-723
h-209zM481 305v141q-40 7 -57 7q-74 0 -119 -35t-45 -113q0 -61 29 -97t80 -36q53 0 82.5 35t29.5 98zM170 1352q0 86 61.5 147.5t147.5 61.5t147.5 -62t61.5 -147q0 -86 -61.5 -147.5t-147.5 -61.5t-147.5 62t-61.5 147zM254 1352q0 -52 36 -88.5t89 -36.5t89 36.5t36 88.5
t-36 88.5t-89 36.5t-89 -36.5t-36 -88.5z" />
    <glyph glyph-name="ae" unicode="&#xe6;" horiz-adv-x="1171" 
d="M690 723v-119h205v119q0 58 -27 88.5t-75 30.5t-75.5 -30.5t-27.5 -88.5zM1104 727v-287h-414v-141q0 -49 27.5 -75.5t75.5 -26.5q93 0 102 104h209q0 -135 -87.5 -223.5t-223.5 -89.5q-97 -1 -168.5 40.5t-104.5 106.5q-36 -72 -100.5 -109.5t-143.5 -37.5
q-41 0 -76.5 11.5t-71 39.5t-56.5 86t-21 139q0 93 15 156t52 108.5t101.5 66.5t161.5 21q16 0 49 -2.5t51 -3.5v109q0 123 -104 123q-42 0 -76 -28t-43 -77h-203q9 140 96 227t226 87q120 0 207 -74q84 74 209 74q142 0 226.5 -92t84.5 -232zM481 305v141q-40 7 -57 7
q-74 0 -119 -35t-45 -113q0 -61 29 -97t80 -36q53 0 82.5 35t29.5 98z" />
    <glyph glyph-name="ccedilla" unicode="&#xe7;" 
d="M229 -176l129 168q-75 10 -132.5 48.5t-88.5 96.5q-39 71 -39 211v342q0 140 39 211q38 69 109 109.5t164 40.5q143 0 227 -92.5t84 -239.5h-209q0 123 -102 123q-48 0 -75.5 -30.5t-27.5 -88.5v-424q0 -49 27.5 -75.5t75.5 -26.5q93 0 102 104h209q0 -134 -84 -221
q-73 -76 -186 -88l-89 -115q40 4 64 4q92 0 133 -46.5t41 -106.5q0 -63 -40.5 -107t-95.5 -62t-116 -18q-81 0 -190 39l35 86q83 -31 133 -31q44 0 77 18.5t33 65.5q0 34 -27.5 56t-64.5 22q-42 0 -80 -14z" />
    <glyph glyph-name="egrave" unicode="&#xe8;" 
d="M690 440h-414v-141q0 -49 27.5 -75.5t75.5 -26.5q93 0 102 104h209q0 -134 -84 -221q-89 -92 -227 -92q-93 0 -164 40t-109 109t-38 211v342q0 142 38 211t109 109.5t164 40.5q142 0 226.5 -92t84.5 -232v-287zM276 723v-119h205v119q0 58 -27 88.5t-75 30.5t-75.5 -30.5
t-27.5 -88.5zM328 1464l184 -288h-135l-271 288h222z" />
    <glyph glyph-name="eacute" unicode="&#xe9;" 
d="M690 440h-414v-141q0 -49 27.5 -75.5t75.5 -26.5q93 0 102 104h209q0 -134 -84 -221q-89 -92 -227 -92q-93 0 -164 40t-109 109t-38 211v342q0 142 38 211t109 109.5t164 40.5q142 0 226.5 -92t84.5 -232v-287zM276 723v-119h205v119q0 58 -27 88.5t-75 30.5t-75.5 -30.5
t-27.5 -88.5zM246 1176l184 288h221l-270 -288h-135z" />
    <glyph glyph-name="ecircumflex" unicode="&#xea;" 
d="M690 440h-414v-141q0 -49 27.5 -75.5t75.5 -26.5q93 0 102 104h209q0 -134 -84 -221q-89 -92 -227 -92q-93 0 -164 40t-109 109t-38 211v342q0 142 38 211t109 109.5t164 40.5q142 0 226.5 -92t84.5 -232v-287zM276 723v-119h205v119q0 58 -27 88.5t-75 30.5t-75.5 -30.5
t-27.5 -88.5zM82 1176l201 288h192l201 -288h-160l-137 194l-137 -194h-160z" />
    <glyph glyph-name="edieresis" unicode="&#xeb;" 
d="M690 440h-414v-141q0 -49 27.5 -75.5t75.5 -26.5q93 0 102 104h209q0 -134 -84 -221q-89 -92 -227 -92q-93 0 -164 40t-109 109t-38 211v342q0 142 38 211t109 109.5t164 40.5q142 0 226.5 -92t84.5 -232v-287zM276 723v-119h205v119q0 58 -27 88.5t-75 30.5t-75.5 -30.5
t-27.5 -88.5zM121 1200v209h184v-209h-184zM453 1200v209h184v-209h-184z" />
    <glyph glyph-name="igrave" unicode="&#xec;" horiz-adv-x="380" 
d="M86 0v1038h209v-1038h-209zM139 1464l185 -288h-136l-270 288h221z" />
    <glyph glyph-name="iacute" unicode="&#xed;" horiz-adv-x="380" 
d="M86 0v1038h209v-1038h-209zM57 1176l185 288h221l-270 -288h-136z" />
    <glyph glyph-name="icircumflex" unicode="&#xee;" horiz-adv-x="380" 
d="M86 0v1038h209v-1038h-209zM-106 1176l200 288h193l200 -288h-159l-138 194l-137 -194h-159z" />
    <glyph glyph-name="idieresis" unicode="&#xef;" horiz-adv-x="380" 
d="M86 0v1038h209v-1038h-209zM-68 1200v209h185v-209h-185zM264 1200v209h185v-209h-185z" />
    <glyph glyph-name="eth" unicode="&#xf0;" 
d="M276 723v-408q0 -57 27.5 -87.5t75.5 -30.5t75 30t27 88v408q0 58 -27 88.5t-75 30.5t-75.5 -30.5t-27.5 -88.5zM176 1245l141 66q-56 48 -157 88l170 90q95 -33 164 -96l139 65l57 -82l-129 -59q129 -171 129 -481v-488q0 -140 -39 -211q-38 -69 -108.5 -109t-163.5 -40
t-164 40t-109 109t-38 211v342q0 142 38 211t109 109.5t164 40.5q29 0 56 -13t42 -34l4 4q-37 153 -96 227l-152 -72z" />
    <glyph glyph-name="ntilde" unicode="&#xf1;" horiz-adv-x="796" 
d="M86 0v1038h209v-100h4q74 113 197 113q89 0 152 -62.5t63 -191.5v-797h-209v719q0 58 -27 90.5t-76 32.5q-56 0 -80 -36t-24 -108v-698h-209zM643 1432h105q-21 -106 -68.5 -167t-138.5 -61q-34 0 -154 41t-141 41q-41 0 -64.5 -25.5t-25.5 -66.5h-105q21 106 68.5 166.5
t138.5 60.5q34 0 154.5 -41t140.5 -41q41 0 64.5 26t25.5 67z" />
    <glyph glyph-name="ograve" unicode="&#xf2;" 
d="M68 348v342q0 142 38 211t109 109.5t164 40.5t163.5 -40.5t108.5 -109.5q39 -71 39 -211v-342q0 -140 -39 -211q-38 -69 -108.5 -109t-163.5 -40t-164 40t-109 109t-38 211zM276 723v-408q0 -57 27.5 -87.5t75.5 -30.5t75 30t27 88v408q0 58 -27 88.5t-75 30.5
t-75.5 -30.5t-27.5 -88.5zM328 1464l184 -288h-135l-271 288h222z" />
    <glyph glyph-name="oacute" unicode="&#xf3;" 
d="M68 348v342q0 142 38 211t109 109.5t164 40.5t163.5 -40.5t108.5 -109.5q39 -71 39 -211v-342q0 -140 -39 -211q-38 -69 -108.5 -109t-163.5 -40t-164 40t-109 109t-38 211zM276 723v-408q0 -57 27.5 -87.5t75.5 -30.5t75 30t27 88v408q0 58 -27 88.5t-75 30.5
t-75.5 -30.5t-27.5 -88.5zM246 1176l184 288h221l-270 -288h-135z" />
    <glyph glyph-name="ocircumflex" unicode="&#xf4;" 
d="M68 348v342q0 142 38 211t109 109.5t164 40.5t163.5 -40.5t108.5 -109.5q39 -71 39 -211v-342q0 -140 -39 -211q-38 -69 -108.5 -109t-163.5 -40t-164 40t-109 109t-38 211zM276 723v-408q0 -57 27.5 -87.5t75.5 -30.5t75 30t27 88v408q0 58 -27 88.5t-75 30.5
t-75.5 -30.5t-27.5 -88.5zM82 1176l201 288h192l201 -288h-160l-137 194l-137 -194h-160z" />
    <glyph glyph-name="otilde" unicode="&#xf5;" 
d="M68 348v342q0 142 38 211t109 109.5t164 40.5t163.5 -40.5t108.5 -109.5q39 -71 39 -211v-342q0 -140 -39 -211q-38 -69 -108.5 -109t-163.5 -40t-164 40t-109 109t-38 211zM276 723v-408q0 -57 27.5 -87.5t75.5 -30.5t75 30t27 88v408q0 58 -27 88.5t-75 30.5
t-75.5 -30.5t-27.5 -88.5zM623 1432h104q-21 -106 -68.5 -167t-138.5 -61q-34 0 -154 41t-141 41q-41 0 -64.5 -25.5t-25.5 -66.5h-104q21 106 68.5 166.5t138.5 60.5q34 0 154 -41t140 -41q42 0 65.5 26t25.5 67z" />
    <glyph glyph-name="odieresis" unicode="&#xf6;" 
d="M68 348v342q0 142 38 211t109 109.5t164 40.5t163.5 -40.5t108.5 -109.5q39 -71 39 -211v-342q0 -140 -39 -211q-38 -69 -108.5 -109t-163.5 -40t-164 40t-109 109t-38 211zM276 723v-408q0 -57 27.5 -87.5t75.5 -30.5t75 30t27 88v408q0 58 -27 88.5t-75 30.5
t-75.5 -30.5t-27.5 -88.5zM121 1200v209h184v-209h-184zM453 1200v209h184v-209h-184z" />
    <glyph glyph-name="divide" unicode="&#xf7;" horiz-adv-x="1228" 
d="M96 436v164h1037v-164h-1037zM483 94q0 54 38.5 92.5t92.5 38.5t92.5 -38.5t38.5 -92.5t-38.5 -92.5t-92.5 -38.5t-92.5 38.5t-38.5 92.5zM483 942q0 54 38.5 92.5t92.5 38.5t92.5 -38.5t38.5 -92.5t-38.5 -92.5t-92.5 -38.5t-92.5 38.5t-38.5 92.5z" />
    <glyph glyph-name="oslash" unicode="&#xf8;" 
d="M281 428l194 334q-13 80 -96 80q-48 0 -75.5 -30.5t-27.5 -88.5v-295h5zM477 610l-194 -334q6 -38 31 -58.5t65 -20.5q48 0 75 30t27 88v295h-4zM8 -25l101 170q-41 80 -41 179v391q0 149 84 242.5t227 93.5q134 0 217 -86l84 141l70 -43l-101 -170q41 -80 41 -178v-391
q0 -149 -84 -242.5t-227 -93.5q-134 0 -217 86l-84 -142z" />
    <glyph glyph-name="ugrave" unicode="&#xf9;" horiz-adv-x="796" 
d="M711 1038v-1038h-209v100h-4q-73 -112 -197 -112q-89 0 -152 62.5t-63 191.5v796h209v-719q0 -58 26.5 -90t75.5 -32q57 0 81 35.5t24 107.5v698h209zM348 1464l184 -288h-135l-270 288h221z" />
    <glyph glyph-name="uacute" unicode="&#xfa;" horiz-adv-x="796" 
d="M711 1038v-1038h-209v100h-4q-73 -112 -197 -112q-89 0 -152 62.5t-63 191.5v796h209v-719q0 -58 26.5 -90t75.5 -32q57 0 81 35.5t24 107.5v698h209zM266 1176l185 288h221l-271 -288h-135z" />
    <glyph glyph-name="ucircumflex" unicode="&#xfb;" horiz-adv-x="796" 
d="M711 1038v-1038h-209v100h-4q-73 -112 -197 -112q-89 0 -152 62.5t-63 191.5v796h209v-719q0 -58 26.5 -90t75.5 -32q57 0 81 35.5t24 107.5v698h209zM102 1176l201 288h193l200 -288h-159l-138 194l-137 -194h-160z" />
    <glyph glyph-name="udieresis" unicode="&#xfc;" horiz-adv-x="796" 
d="M711 1038v-1038h-209v100h-4q-73 -112 -197 -112q-89 0 -152 62.5t-63 191.5v796h209v-719q0 -58 26.5 -90t75.5 -32q57 0 81 35.5t24 107.5v698h209zM141 1200v209h185v-209h-185zM473 1200v209h184v-209h-184z" />
    <glyph glyph-name="yacute" unicode="&#xfd;" horiz-adv-x="720" 
d="M-2 1038h221l143 -647h5l141 647h215l-299 -1218q-58 -240 -289 -240h-57v197h47q45 0 69 17.5t44.5 74t44.5 178.5zM227 1176l185 288h221l-271 -288h-135z" />
    <glyph glyph-name="thorn" unicode="&#xfe;" horiz-adv-x="796" 
d="M86 -420v1878h209v-514q35 39 54 56.5t57.5 34t87.5 16.5q128 0 182 -99q35 -63 35 -223v-395q0 -115 -6.5 -167.5t-26.5 -84.5q-60 -94 -186 -94q-123 0 -193 106h-4v-514h-209zM502 319v381q0 66 -25.5 104t-77.5 38q-47 0 -75.5 -36t-28.5 -93v-404q0 -49 29.5 -80.5
t74.5 -31.5q103 0 103 122z" />
    <glyph glyph-name="ydieresis" unicode="&#xff;" horiz-adv-x="720" 
d="M-2 1038h221l143 -647h5l141 647h215l-299 -1218q-58 -240 -289 -240h-57v197h47q45 0 69 17.5t44.5 74t44.5 178.5zM102 1200v209h185v-209h-185zM434 1200v209h184v-209h-184z" />
    <glyph glyph-name="dotlessi" unicode="&#x131;" horiz-adv-x="380" 
d="M86 0v1038h209v-1038h-209z" />
    <glyph glyph-name="Lslash" unicode="&#x141;" 
d="M98 0v543l-98 -78v184l98 78v731h209v-567l246 196v-184l-246 -196v-498h414v-209h-623z" />
    <glyph glyph-name="lslash" unicode="&#x142;" horiz-adv-x="380" 
d="M74 279v352l-103 -90v147l103 90v680h209v-495l102 88v-148l-102 -88v-522q0 -58 21 -80.5t81 -28.5v-196q-78 0 -131 12t-96 42.5t-63.5 89t-20.5 147.5z" />
    <glyph glyph-name="OE" unicode="&#x152;" horiz-adv-x="1249" 
d="M590 324v811q0 63 -39 107t-102 44t-102.5 -44t-39.5 -107v-811q0 -63 39.5 -107.5t102.5 -44.5t102 44.5t39 107.5zM1212 1458v-196h-413v-428h360v-197h-360v-428h413v-209h-622v70h-4q-27 -36 -75.5 -59t-98.5 -23q-144 0 -229 101t-85 245v790q0 144 85 245t229 101
q119 0 174 -86h4v74h622z" />
    <glyph glyph-name="oe" unicode="&#x153;" horiz-adv-x="1171" 
d="M68 348v342q0 142 38 211t109 109.5t164 40.5q123 0 207 -70q79 70 207 70q142 0 226.5 -92t84.5 -232v-287h-414v-141q0 -49 27.5 -75.5t75.5 -26.5q93 0 102 104h209q0 -134 -84 -221q-89 -92 -227 -92q-62 0 -122 18t-93 53q-34 -33 -87 -52t-112 -19q-93 0 -164 40
t-109 109t-38 211zM690 723v-119h205v119q0 58 -27 88.5t-75 30.5t-75.5 -30.5t-27.5 -88.5zM276 723v-408q0 -57 27.5 -87.5t75.5 -30.5t75 30t27 88v408q0 58 -27 88.5t-75 30.5t-75.5 -30.5t-27.5 -88.5z" />
    <glyph glyph-name="Scaron" unicode="&#x160;" horiz-adv-x="831" 
d="M774 1141v-103h-209v47q0 78 -36 127.5t-111 49.5q-142 0 -142 -189q0 -90 20.5 -126.5t98.5 -67.5l160 -64q131 -50 175 -139t44 -260q0 -428 -360 -428q-152 0 -254.5 99t-102.5 247v78h209v-66q0 -63 37 -106t111 -43q51 0 82.5 14t46 46t18.5 65.5t4 91.5
q0 80 -10 119t-33 59.5t-78 42.5l-149 61q-129 53 -178 141.5t-49 233.5q0 174 92.5 286.5t265.5 112.5q100 0 181.5 -48.5t124 -123.5t42.5 -157zM713 1812l-201 -288h-193l-200 288h160l137 -194l137 194h160z" />
    <glyph glyph-name="scaron" unicode="&#x161;" horiz-adv-x="720" 
d="M662 748h-197q-1 50 -32 78t-75 28q-47 0 -74.5 -31t-27.5 -73q0 -35 17.5 -60.5t70.5 -46.5l123 -49q205 -78 205 -293q0 -131 -89 -222t-223 -91q-129 0 -217 82.5t-94 230.5h197q16 -117 112 -117q47 0 82 31.5t35 81.5q0 45 -23 75t-81 52l-101 37
q-100 37 -155.5 111t-55.5 176q0 130 90 216.5t218 86.5q127 0 210 -86.5t85 -216.5zM657 1464l-200 -288h-193l-201 288h160l137 -194l138 194h159z" />
    <glyph glyph-name="Ydieresis" unicode="&#x178;" horiz-adv-x="794" 
d="M293 0v616l-287 842h221l168 -579h4l168 579h221l-286 -842v-616h-209zM139 1548v209h185v-209h-185zM471 1548v209h184v-209h-184z" />
    <glyph glyph-name="Zcaron" unicode="&#x17d;" horiz-adv-x="681" 
d="M31 0v184l393 1078h-373v196h600v-166l-401 -1095h401v-197h-620zM639 1812l-201 -288h-192l-201 288h160l137 -194l137 194h160z" />
    <glyph glyph-name="zcaron" unicode="&#x17e;" horiz-adv-x="645" 
d="M35 0v166l338 688h-312v184h549v-166l-338 -675h338v-197h-575zM621 1464l-201 -288h-193l-200 288h159l138 -194l137 194h160z" />
    <glyph glyph-name="florin" unicode="&#x192;" horiz-adv-x="761" 
d="M92 760l23 164h172l47 262q16 86 43.5 143.5t66.5 87.5t80 41.5t94 11.5q22 0 132 -8l-29 -188q-9 1 -25 4.5t-29.5 5.5t-25.5 2q-55 0 -80.5 -31.5t-40.5 -119.5l-37 -211h158l-27 -164h-159l-146 -815q-15 -85 -36 -145.5t-57.5 -111.5t-93.5 -76.5t-136 -25.5
q-50 0 -109 17l23 192q38 -12 82 -12q97 0 120 123l154 854h-164z" />
    <glyph glyph-name="circumflex" unicode="&#x2c6;" horiz-adv-x="380" 
d="M-106 1176l200 288h193l200 -288h-159l-138 194l-137 -194h-159z" />
    <glyph glyph-name="caron" unicode="&#x2c7;" horiz-adv-x="380" 
d="M487 1464l-200 -288h-193l-200 288h159l137 -194l138 194h159z" />
    <glyph glyph-name="uni02C9" unicode="&#x2c9;" horiz-adv-x="380" 
d="M-90 1243v123h561v-123h-561z" />
    <glyph glyph-name="breve" unicode="&#x2d8;" horiz-adv-x="380" 
d="M401 1464h105q-22 -137 -101.5 -207.5t-214.5 -70.5q-134 0 -213.5 70.5t-101.5 207.5h105q20 -155 210 -155q191 0 211 155z" />
    <glyph glyph-name="dotaccent" unicode="&#x2d9;" horiz-adv-x="380" 
d="M98 1200v209h185v-209h-185z" />
    <glyph glyph-name="ring" unicode="&#x2da;" horiz-adv-x="380" 
d="M-18 1352q0 86 61 147.5t147 61.5t147.5 -62t61.5 -147q0 -86 -61.5 -147.5t-147.5 -61.5t-147 62t-61 147zM66 1352q0 -53 36 -89t88 -36t88.5 36.5t36.5 88.5t-36.5 88.5t-88.5 36.5t-88 -36t-36 -89z" />
    <glyph glyph-name="ogonek" unicode="&#x2db;" horiz-adv-x="380" 
d="M371 -338l28 -76q-80 -45 -198 -45q-88 0 -145.5 51t-57.5 136q0 48 13.5 87t43.5 72.5t57.5 56t75.5 56.5h105q-62 -59 -96.5 -127t-34.5 -131q0 -48 29.5 -77.5t70.5 -29.5q60 0 109 27z" />
    <glyph glyph-name="tilde" unicode="&#x2dc;" horiz-adv-x="380" 
d="M434 1432h105q-21 -106 -68.5 -167t-138.5 -61q-34 0 -154 41t-141 41q-41 0 -64.5 -25.5t-25.5 -66.5h-105q21 106 68.5 166.5t138.5 60.5q34 0 154.5 -41t140.5 -41q41 0 64.5 26t25.5 67z" />
    <glyph glyph-name="hungarumlaut" unicode="&#x2dd;" horiz-adv-x="380" 
d="M-111 1176l185 288h221l-270 -288h-136zM221 1176l185 288h221l-271 -288h-135z" />
    <glyph glyph-name="uni03A9" unicode="&#x3a9;" horiz-adv-x="931" 
d="M225 182v6q-69 114 -113 272t-44 337q0 187 49.5 335.5t142 234t213.5 85.5q77 0 142 -37t109 -99t75 -144.5t45 -172t14 -182.5q0 -184 -47 -353t-113 -276v-6h181v-182h-353v129q55 72 93 237.5t38 393.5q0 99 -10.5 185t-32 157.5t-59.5 113t-88 41.5
q-96 0 -148.5 -138t-52.5 -365q0 -209 39.5 -381.5t91.5 -243.5v-129h-352v182h180z" />
    <glyph glyph-name="uni03BC" unicode="&#x3bc;" horiz-adv-x="796" 
d="M711 1038v-1038h-209v100h-4q-25 -54 -66 -86q-36 -26 -70 -26q-43 0 -63 20h-4v-428h-209v1458h209v-719q0 -58 26.5 -90t75.5 -32q57 0 81 35.5t24 107.5v698h209z" />
    <glyph glyph-name="pi" unicode="&#x3c0;" horiz-adv-x="864" 
d="M825 881h-94v-619q0 -172 19 -262h-187q-26 65 -26 264v617h-181q-8 -202 -33 -458t-63 -423h-186q38 185 63 442t27 439q-78 0 -125 -15l-25 148q68 61 240 61h584z" />
    <glyph glyph-name="endash" unicode="&#x2013;" horiz-adv-x="1024" 
d="M0 469v197h1024v-197h-1024z" />
    <glyph glyph-name="emdash" unicode="&#x2014;" horiz-adv-x="2048" 
d="M0 469v197h2048v-197h-2048z" />
    <glyph glyph-name="quoteleft" unicode="&#x2018;" horiz-adv-x="380" 
d="M295 1458v-360h-209v209z" />
    <glyph glyph-name="quoteright" unicode="&#x2019;" horiz-adv-x="380" 
d="M86 1098v360h209v-209z" />
    <glyph glyph-name="quotesinglbase" unicode="&#x201a;" horiz-adv-x="380" 
d="M86 -152v361h209v-209z" />
    <glyph glyph-name="quotedblleft" unicode="&#x201c;" horiz-adv-x="569" 
d="M532 1458v-360h-208v209zM246 1458v-360h-209v209z" />
    <glyph glyph-name="quotedblright" unicode="&#x201d;" horiz-adv-x="569" 
d="M37 1098v360h209v-209zM324 1098v360h208v-209z" />
    <glyph glyph-name="quotedblbase" unicode="&#x201e;" horiz-adv-x="569" 
d="M37 -152v361h209v-209zM324 -152v361h208v-209z" />
    <glyph glyph-name="dagger" unicode="&#x2020;" 
d="M287 -420v1231h-275v184h275v463h184v-463h274v-184h-274v-1231h-184z" />
    <glyph glyph-name="daggerdbl" unicode="&#x2021;" 
d="M287 1012v446h184v-446h274v-164h-274v-658h274v-163h-274v-447h-184v447h-275v163h275v658h-275v164h275z" />
    <glyph glyph-name="bullet" unicode="&#x2022;" horiz-adv-x="1024" 
d="M147 729q0 151 107 258t258 107t258 -107t107 -258t-107 -257.5t-258 -106.5t-258 106.5t-107 257.5z" />
    <glyph glyph-name="ellipsis" unicode="&#x2026;" horiz-adv-x="2048" 
d="M238 0v209h208v-209h-208zM920 0v209h208v-209h-208zM1602 0v209h208v-209h-208z" />
    <glyph glyph-name="perthousand" unicode="&#x2030;" horiz-adv-x="1099" 
d="M856 268v-104q0 -22 15.5 -37.5t35.5 -15.5t35.5 15.5t15.5 37.5v104q0 22 -15.5 38t-35.5 16t-35.5 -16t-15.5 -38zM733 143v133q0 77 47.5 122.5t126.5 45.5t126.5 -45.5t47.5 -122.5v-133q0 -69 -47.5 -112t-126.5 -43t-126.5 43t-47.5 112zM141 1294v-104
q0 -22 15.5 -37.5t36.5 -15.5q20 0 35.5 15.5t15.5 37.5v104q0 22 -15.5 38t-35.5 16t-36 -16t-16 -38zM18 1169v134q0 76 47.5 121.5t127.5 45.5t127 -45.5t47 -121.5v-134q0 -69 -47.5 -112t-126.5 -43t-127 43t-48 112zM461 268v-104q0 -22 15.5 -37.5t35.5 -15.5
t35.5 15.5t15.5 37.5v104q0 22 -15.5 38t-35.5 16t-35.5 -16t-15.5 -38zM338 143v133q0 77 47.5 122.5t126.5 45.5t126.5 -45.5t47.5 -122.5v-133q0 -69 -47.5 -112t-126.5 -43t-126.5 43t-47.5 112zM41 0l500 1458h135l-500 -1458h-135z" />
    <glyph glyph-name="guilsinglleft" unicode="&#x2039;" horiz-adv-x="493" 
d="M436 981v-209l-207 -205l207 -205v-208l-416 413z" />
    <glyph glyph-name="guilsinglright" unicode="&#x203a;" horiz-adv-x="493" 
d="M57 154v208l207 205l-207 205v209l416 -414z" />
    <glyph glyph-name="fraction" unicode="&#x2044;" horiz-adv-x="342" 
d="M-338 -35l895 1528h123l-895 -1528h-123z" />
    <glyph glyph-name="Euro" unicode="&#x20ac;" horiz-adv-x="761" 
d="M698 1421v-194q-51 51 -155 51q-86 0 -132 -77.5t-55 -239.5h293l-41 -160h-262v-68v-69h227l-41 -162h-176q9 -169 56 -246.5t131 -77.5q106 0 155 49v-198q-53 -39 -194 -39q-152 0 -238.5 121t-109.5 391h-123l41 162h65q-2 18 -2 69q0 43 2 68h-106l41 160h78
q40 507 354 507q67 0 117 -14.5t75 -32.5z" />
    <glyph glyph-name="afii61289" unicode="&#x2113;" horiz-adv-x="733" 
d="M637 317l76 -84q-96 -237 -283 -237q-76 0 -131 28.5t-85 80t-43.5 114t-12.5 139.5v31q-12 -12 -39 -40t-41 -42l-45 115q87 90 125 143v543q0 236 76 356.5t192 120.5q93 0 140.5 -90t47.5 -250q0 -327 -266 -690v-123q0 -270 123 -270q49 0 88.5 42.5t77.5 112.5z
M348 1067v-301q75 124 118.5 255t43.5 243q0 83 -17.5 120t-58.5 37q-86 0 -86 -354z" />
    <glyph glyph-name="trademark" unicode="&#x2122;" horiz-adv-x="2027" 
d="M340 614v709h-260v135h668v-135h-261v-709h-147zM1649 614v709h-4l-281 -709h-84l-279 709h-4v-709h-147v844h233l240 -616l240 616h233v-844h-147z" />
    <glyph glyph-name="Omega" unicode="&#x2126;" horiz-adv-x="931" 
d="M225 182v6q-69 114 -113 272t-44 337q0 187 49.5 335.5t142 234t213.5 85.5q77 0 142 -37t109 -99t75 -144.5t45 -172t14 -182.5q0 -184 -47 -353t-113 -276v-6h181v-182h-353v129q55 72 93 237.5t38 393.5q0 99 -10.5 185t-32 157.5t-59.5 113t-88 41.5
q-96 0 -148.5 -138t-52.5 -365q0 -209 39.5 -381.5t91.5 -243.5v-129h-352v182h180z" />
    <glyph glyph-name="estimated" unicode="&#x212e;" horiz-adv-x="1787" 
d="M1716 709h-1333q-10 0 -10 -9v-403q0 -28 16 -47q99 -103 229.5 -161t274.5 -58q156 0 293.5 65t238.5 180h117q-110 -132 -282 -209t-369 -77q-167 0 -319 58t-262 157t-175 235.5t-65 286.5q0 152 65 289.5t175 237t262 158t319 58.5q168 0 321 -58.5t263.5 -158
t175.5 -237t65 -289.5v-18zM1413 762v405q0 29 -18 47q-102 99 -230.5 155t-271.5 56q-142 0 -272 -58t-230 -159q-18 -18 -18 -51v-395q0 -14 10 -14h1022q8 0 8 14z" />
    <glyph glyph-name="partialdiff" unicode="&#x2202;" horiz-adv-x="839" 
d="M162 1350l-51 178q113 104 256 104q61 0 116.5 -25.5t107 -83.5t89 -144.5t60 -217.5t22.5 -293q0 -427 -104.5 -647.5t-299.5 -220.5q-90 0 -157.5 64.5t-101 169.5t-33.5 235q0 249 96 398t227 149q64 0 109.5 -33.5t68.5 -77.5h2v60q0 124 -27 232.5t-80.5 178.5
t-121.5 70q-94 0 -178 -96zM377 190h4q49 0 88 76t60.5 189t27.5 243q-14 55 -49 95.5t-86 40.5q-47 0 -84.5 -55t-56.5 -140.5t-19 -183.5q0 -122 30 -193.5t85 -71.5z" />
    <glyph glyph-name="Delta" unicode="&#x2206;" horiz-adv-x="923" 
d="M45 0v131l311 1327h228l293 -1321v-137h-832zM240 176h440l-137 606q-10 61 -40.5 192.5t-37.5 178.5h-2q-6 -48 -35.5 -169.5t-40.5 -178.5z" />
    <glyph glyph-name="product" unicode="&#x220f;" horiz-adv-x="1050" 
d="M1001 1227h-131v-1426h-198v1426h-295v-1426h-199v1426h-131v205h954v-205z" />
    <glyph glyph-name="summation" unicode="&#x2211;" horiz-adv-x="800" 
d="M770 -199h-727v154l348 668l-340 651v158h692v-181h-440v-6l305 -575l-348 -652v-6h510v-211z" />
    <glyph glyph-name="minus" unicode="&#x2212;" horiz-adv-x="1228" 
d="M96 436v164h1037v-164h-1037z" />
    <glyph glyph-name="uni2215" unicode="&#x2215;" horiz-adv-x="342" 
d="M-338 -35l895 1528h123l-895 -1528h-123z" />
    <glyph glyph-name="uni2219" unicode="&#x2219;" horiz-adv-x="380" 
d="M59 610q0 54 38.5 92.5t92.5 38.5t93 -38.5t39 -92.5t-39 -92.5t-93 -38.5t-92.5 38.5t-38.5 92.5z" />
    <glyph glyph-name="radical" unicode="&#x221a;" horiz-adv-x="899" 
d="M887 1724l-320 -2005h-159l-211 908l-111 -43l-31 129l269 104l131 -602q28 -175 30 -199l2 -2q15 154 23 207l244 1503h133z" />
    <glyph glyph-name="infinity" unicode="&#x221e;" horiz-adv-x="1300" 
d="M1223 594v-2q0 -133 -80.5 -214t-190.5 -81q-80 0 -149 40.5t-148 147.5q-75 -93 -146.5 -140.5t-166.5 -47.5q-107 0 -185.5 81.5t-78.5 205.5q0 129 78 211t200 82q89 0 159.5 -47t139.5 -140q1 1 23 26t27 29.5t26 27t31 28.5t31.5 23t37 22.5t38 15t45 12.5t47.5 3
q112 0 187 -78.5t75 -204.5zM358 414h2q34 0 64 12t61.5 40.5t50.5 49t54 62.5q-70 94 -99 121q-63 61 -139 61q-73 0 -113 -50t-40 -128q0 -70 46.5 -119t112.5 -49zM950 760h-2q-24 0 -49.5 -9.5t-43.5 -20t-41.5 -33.5t-35 -35t-34 -39l-27.5 -33q81 -103 127.5 -139.5
t111.5 -36.5t105.5 53.5t40.5 116.5q0 77 -42 126.5t-110 49.5z" />
    <glyph glyph-name="integral" unicode="&#x222b;" horiz-adv-x="669" 
d="M606 1747l-22 -158q-26 15 -49 15q-45 0 -74 -54q-24 -38 -32.5 -120t-8.5 -228q0 -162 10 -488t10 -511q0 -297 -59 -418q-30 -68 -87 -99.5t-124 -31.5q-68 0 -113 27l29 163q32 -16 57 -16q44 0 66 43q35 68 35 324q0 187 -10.5 520.5t-10.5 503.5q0 180 21.5 283
t72.5 171q32 42 85.5 67t109.5 25q58 0 94 -18z" />
    <glyph glyph-name="approxequal" unicode="&#x2248;" horiz-adv-x="821" 
d="M686 866l76 -59q-30 -81 -85 -135t-122 -54q-40 0 -75.5 15t-88.5 51q-32 23 -47.5 33.5t-38 19t-43.5 8.5q-19 0 -36.5 -8.5t-27.5 -16.5t-25 -31.5t-19.5 -31.5t-20.5 -39l-76 60q32 83 89 134.5t128 51.5q27 0 55 -8t42 -15t39 -22.5t28 -17.5q6 -4 20 -13.5
t19.5 -13.5t17.5 -11t18.5 -10t16 -7t17.5 -5.5t16 -1.5q39 0 65.5 31t57.5 96zM686 555l76 -59q-30 -81 -85 -135t-122 -54q-40 0 -75.5 15t-88.5 51q-34 25 -47.5 34t-36.5 18t-45 9q-19 0 -36 -8.5t-28.5 -18t-25.5 -30.5t-20 -32.5t-19 -37.5l-76 58q32 85 89 135.5
t128 50.5q27 0 55 -8t41.5 -14.5t40 -22.5t27.5 -17q10 -6 28 -18.5t27.5 -18.5t23 -13t24.5 -10t22 -3q39 0 65 31.5t58 97.5z" />
    <glyph glyph-name="notequal" unicode="&#x2260;" horiz-adv-x="821" 
d="M606 965l-57 -146h194v-127h-233l-90 -227h323v-125h-364l-70 -176l-94 31l57 145h-196v125h237l88 227h-325v127h366l70 178z" />
    <glyph glyph-name="lessequal" unicode="&#x2264;" horiz-adv-x="821" 
d="M737 221l-653 395v138l653 395v-154l-540 -307v-4l540 -309v-154zM748 20h-670v132h670v-132z" />
    <glyph glyph-name="greaterequal" unicode="&#x2265;" horiz-adv-x="821" 
d="M90 1149l653 -395v-136l-653 -397v154l539 309v4l-539 307v154zM748 20h-668v132h668v-132z" />
    <glyph glyph-name="lozenge" unicode="&#x25ca;" horiz-adv-x="897" 
d="M817 715l-291 -793h-170l-274 793l291 794h170zM635 711l-148 458q-17 57 -30 146h-6q-19 -103 -31 -146l-156 -448l150 -471q15 -51 26 -135h11q10 80 26 131z" />
    <glyph glyph-name="nine.alt" unicode="&#xe000;" horiz-adv-x="761" 
d="M70 737v420q0 141 90.5 227t220.5 86t220.5 -86t90.5 -227v-856q0 -141 -90.5 -227t-220.5 -86t-220.5 86t-90.5 227h209q0 -44 29 -74t73 -30t73 30t29 74v197q-100 -47 -192 -47q-54 0 -101.5 26.5t-74.5 67.5t-36 83t-9 109zM279 1157v-418q0 -46 30.5 -75t71.5 -29
t71.5 29t30.5 75v418q0 46 -30.5 75.5t-71.5 29.5t-71.5 -29.5t-30.5 -75.5z" />
    <glyph glyph-name="six.alt" unicode="&#xe001;" horiz-adv-x="761" 
d="M70 301v856q0 141 90.5 227t220.5 86t220.5 -86t90.5 -227h-209q0 45 -29 75t-73 30t-73 -30t-29 -75v-196q100 47 192 47q54 0 101.5 -27t74.5 -68t36 -83t9 -109v-420q0 -141 -90.5 -227t-220.5 -86t-220.5 86t-90.5 227zM279 719v-418q0 -46 30.5 -75t71.5 -29
t71.5 29t30.5 75v418q0 46 -30.5 75t-71.5 29t-71.5 -29t-30.5 -75z" />
    </font>
</defs>
</svg>
